<?xml version="1.0" standalone="no"?>
<!DOCTYPE svg PUBLIC "-//W3C//DTD SVG 20010904//EN"
 "http://www.w3.org/TR/2001/REC-SVG-20010904/DTD/svg10.dtd">
<svg version="1.0" xmlns="http://www.w3.org/2000/svg"
 width="1931.000000pt" height="1489.000000pt" viewBox="0 0 1931.000000 1489.000000"
 preserveAspectRatio="xMidYMid meet">
<metadata>
Created by potrace 1.16, written by Peter Selinger 2001-2019
</metadata>
<g transform="translate(0.000000,1489.000000) scale(0.100000,-0.100000)"
fill="#000000" stroke="none">
<path d="M10290 14870 c-129 -10 -251 -21 -270 -25 -45 -10 -119 -47 -157 -79
l-30 -26 -19 21 c-46 50 -160 88 -299 99 -60 5 -290 10 -510 11 -379 1 -404 0
-483 -20 -240 -62 -672 -278 -994 -498 -93 -62 -168 -111 -168 -108 0 3 47 74
105 157 58 83 103 153 100 157 -11 11 -329 -105 -550 -201 -578 -250 -1206
-644 -1565 -982 -1064 -1002 -1761 -2357 -1974 -3836 -56 -386 -61 -494 -58
-1145 3 -650 11 -920 27 -920 6 0 14 24 19 53 5 28 12 52 15 52 3 0 28 -91 55
-203 135 -564 254 -918 462 -1376 254 -559 633 -1165 1026 -1642 l95 -116 -32
-48 c-32 -46 -32 -49 -18 -82 8 -19 32 -58 55 -86 l41 -52 -7 -195 c-3 -107
-9 -261 -13 -342 l-6 -148 -45 0 c-37 0 -50 -6 -78 -34 -19 -19 -34 -43 -34
-53 0 -74 183 -253 640 -624 l44 -35 -23 -300 c-12 -164 -24 -309 -27 -321 -3
-17 -11 -23 -30 -23 -38 0 -82 -27 -100 -62 -15 -29 -15 -33 7 -80 20 -44 36
-57 173 -147 429 -280 916 -521 1426 -706 687 -248 1422 -403 2240 -472 286
-24 779 -24 1040 0 702 65 1272 177 1900 374 161 51 508 178 607 224 35 16 65
29 68 29 14 0 394 185 520 252 202 110 319 180 516 310 129 85 170 117 183
144 9 19 16 40 16 48 0 27 -77 76 -120 76 -12 0 -20 7 -20 17 0 27 -51 657
-53 660 -2 1 -8 -2 -15 -6 -11 -6 -8 -70 12 -329 14 -176 26 -325 26 -331 0
-6 7 -11 15 -11 8 0 15 -8 15 -18 0 -12 -37 -40 -117 -87 -580 -341 -1100
-605 -1443 -733 -351 -129 -875 -266 -1295 -336 -836 -140 -1611 -148 -2468
-26 -1094 157 -2165 557 -2932 1095 -66 47 -124 86 -128 87 -4 2 4 147 18 322
14 175 25 347 25 382 0 35 4 64 9 64 4 0 26 -14 47 -31 81 -65 277 -202 399
-280 399 -252 865 -473 1326 -628 l114 -38 6 -39 c30 -186 82 -292 137 -277
18 4 22 13 22 43 0 45 24 70 67 70 29 0 32 -4 43 -48 14 -61 62 -122 96 -122
21 0 24 5 24 34 0 43 33 82 78 91 30 6 32 5 32 -22 1 -39 33 -107 61 -127 49
-34 93 -10 82 44 -6 32 26 62 84 79 26 7 51 23 64 40 l20 28 119 -24 c480 -93
1100 -143 1525 -123 370 18 762 60 1053 114 120 22 123 22 139 3 21 -23 77
-47 110 -47 33 0 39 -24 20 -81 -8 -27 -14 -49 -13 -49 9 0 83 43 98 57 28 25
48 67 48 101 0 18 6 32 16 36 8 3 12 2 9 -4 -4 -6 10 -11 32 -11 86 -4 78 4
77 -77 l-2 -73 32 20 c48 31 65 61 72 129 5 47 11 62 23 62 14 0 14 2 1 10
-17 11 -1 13 25 4 13 -5 14 -9 4 -15 -8 -5 -2 -10 21 -16 29 -8 35 -15 50 -63
l18 -55 44 46 c32 33 47 58 51 85 4 21 12 65 19 98 l13 59 210 72 c632 217
1160 490 1650 854 l110 82 7 -52 c7 -62 31 -86 36 -36 2 17 11 41 20 52 9 11
10 14 2 8 -22 -20 -30 -15 -30 19 0 23 8 38 27 54 24 19 27 28 27 79 l0 58 71
56 c132 105 250 205 349 295 105 96 116 99 144 43 24 -48 -19 -109 -178 -253
-144 -131 -188 -177 -78 -82 115 99 251 233 275 271 21 34 22 41 11 65 -15 30
-101 76 -129 69 -21 -6 -26 31 -34 288 -3 94 -8 213 -11 265 l-5 95 42 45 c75
82 93 110 80 123 -9 9 -20 3 -47 -28 -33 -37 -34 -37 -11 -5 48 69 50 77 25
113 -12 17 -26 33 -30 35 -4 2 37 56 90 120 514 618 947 1368 1235 2142 86
232 152 450 242 808 41 162 76 297 79 299 2 3 11 -24 18 -59 8 -35 19 -63 24
-63 5 0 12 63 15 140 11 228 10 1136 -1 1325 -69 1209 -420 2277 -1088 3310
-45 69 -90 136 -101 150 -11 14 -61 81 -112 150 -75 101 -245 313 -294 366 -5
6 -35 39 -65 74 -30 35 -74 85 -98 112 -39 45 -129 133 -325 318 -37 35 -114
99 -170 143 -56 44 -103 85 -105 92 -2 6 -20 20 -40 29 -20 10 -103 62 -183
116 -264 178 -551 342 -814 465 -76 35 -141 69 -144 74 -4 5 -20 13 -36 17
-17 4 -84 28 -150 54 -176 70 -406 151 -417 148 -5 -2 4 -21 19 -43 16 -22 68
-95 116 -163 l88 -123 -153 106 c-180 123 -337 215 -567 330 -272 136 -430
189 -641 215 -119 14 -404 10 -680 -10z m848 -40 c126 -30 274 -92 507 -210
263 -134 318 -167 557 -332 234 -163 214 -150 226 -135 8 10 -18 54 -104 177
-63 90 -113 165 -111 167 5 4 89 -25 260 -92 l148 -58 151 -253 c146 -242 153
-252 191 -264 21 -6 41 -10 42 -8 2 2 -59 107 -135 233 -77 127 -140 233 -140
237 0 7 251 -112 376 -178 l70 -37 155 -321 155 -321 54 -37 c29 -21 55 -37
57 -35 1 2 -67 139 -153 305 -88 172 -154 311 -152 322 3 19 16 13 123 -53
151 -92 357 -230 371 -248 6 -8 26 -61 43 -119 18 -58 59 -179 91 -270 33 -91
84 -244 114 -340 52 -165 58 -178 101 -220 24 -24 47 -41 50 -39 3 3 -8 44
-24 90 -16 46 -50 154 -75 239 -25 85 -77 247 -116 359 -39 112 -69 208 -68
213 6 16 223 -166 368 -308 l145 -143 23 -88 c94 -365 137 -548 183 -780 45
-230 56 -274 81 -310 31 -46 48 -54 48 -24 0 80 -65 424 -146 775 -35 153 -63
281 -60 283 9 10 303 -347 439 -533 l67 -92 1 -93 c0 -52 5 -137 9 -189 5 -52
14 -284 19 -515 10 -389 12 -424 32 -477 12 -32 25 -58 30 -58 13 0 10 781 -4
1017 -7 111 -9 199 -6 195 32 -35 252 -405 341 -572 40 -76 44 -89 37 -125 -4
-22 -31 -300 -60 -618 l-53 -579 26 -76 c14 -43 28 -70 31 -62 3 8 31 294 62
635 31 341 57 621 59 622 1 1 35 -70 75 -160 85 -187 182 -433 235 -592 l36
-111 -185 -534 c-164 -475 -185 -542 -184 -595 2 -136 8 -127 132 210 229 626
286 780 287 774 0 -4 22 -94 49 -200 28 -107 62 -250 76 -319 l26 -125 -159
-410 c-87 -225 -202 -508 -255 -628 -90 -203 -97 -223 -97 -283 0 -41 4 -64
10 -62 19 6 220 457 376 843 84 209 153 377 154 372 0 -4 7 -51 14 -105 20
-133 44 -360 55 -526 l10 -138 -342 -512 -341 -511 -6 -62 c-3 -35 -2 -63 1
-63 13 0 444 625 564 818 l120 192 3 -202 c1 -112 -1 -264 -6 -338 l-9 -136
-134 -190 c-166 -233 -273 -364 -500 -607 -168 -180 -176 -190 -187 -244 -6
-31 -10 -59 -7 -61 2 -2 80 74 173 169 171 176 320 352 507 599 56 74 109 141
118 148 14 12 16 10 11 -20 -2 -18 -11 -85 -19 -148 -8 -63 -40 -222 -72 -354
l-58 -238 -450 -390 c-407 -351 -453 -394 -478 -445 -15 -30 -26 -60 -25 -65
2 -6 206 161 453 371 248 210 451 377 453 372 4 -11 -125 -400 -179 -537 l-43
-112 -290 -170 c-160 -93 -369 -207 -465 -253 -170 -82 -174 -84 -213 -141
-22 -34 -33 -58 -26 -58 34 0 508 242 711 363 125 75 227 133 227 129 0 -11
-151 -337 -193 -416 l-42 -79 -285 -135 c-157 -74 -400 -183 -540 -242 l-255
-108 -27 -46 c-15 -25 -23 -46 -17 -46 22 0 597 238 789 327 113 53 220 102
239 110 l33 14 -43 -78 c-23 -43 -79 -138 -123 -211 l-81 -134 -310 -130
c-170 -71 -434 -177 -585 -235 -221 -86 -279 -113 -300 -137 -35 -41 -53 -67
-49 -70 10 -8 518 184 888 336 145 59 266 107 268 105 6 -7 -223 -329 -352
-494 -5 -7 -107 -40 -225 -74 -277 -78 -850 -233 -918 -249 -38 -9 -65 -24
-100 -56 -26 -24 -42 -43 -37 -43 6 -1 276 71 600 158 325 88 591 158 593 156
3 -3 -222 -264 -300 -347 l-53 -57 -340 -65 c-365 -70 -647 -117 -815 -137
-101 -12 -107 -14 -147 -51 -39 -35 -40 -38 -19 -38 66 0 616 86 981 154 132
24 241 43 243 42 9 -10 -452 -435 -524 -482 -39 -26 -783 -83 -1090 -84 l-120
0 -35 -36 -34 -36 235 6 c249 7 411 17 707 42 100 9 189 14 198 12 14 -3 -301
-247 -410 -318 l-50 -32 -415 7 c-228 4 -496 10 -594 14 l-179 6 -93 100 c-52
55 -94 105 -94 110 0 6 17 69 39 140 21 72 54 198 72 282 28 124 38 154 54
161 41 19 86 66 111 113 22 45 27 49 62 50 20 0 78 11 127 23 50 13 92 22 94
20 5 -5 -120 -523 -136 -562 -17 -41 -11 -50 22 -32 55 29 60 43 138 342 42
162 77 299 77 305 0 6 16 23 35 38 20 14 49 50 66 79 l29 53 68 6 c37 4 89 14
115 23 27 9 50 15 51 13 5 -5 -16 -143 -47 -321 -13 -76 -22 -140 -19 -142 4
-4 70 19 78 27 9 9 64 390 66 454 1 22 10 36 36 54 38 26 92 102 92 129 0 24
28 45 80 59 60 18 127 52 183 95 l46 35 -4 -27 c-19 -108 -55 -405 -50 -410 3
-3 19 8 36 24 28 29 31 40 69 274 27 169 47 264 64 305 14 33 26 68 26 78 0
11 10 21 22 25 60 15 185 89 242 143 l63 59 7 -47 c3 -25 6 -118 6 -207 l0
-161 39 40 40 40 -11 217 c-10 194 -10 224 5 286 9 39 17 92 17 120 0 28 3 57
6 66 3 9 34 30 68 48 34 18 90 62 128 99 66 67 67 67 72 41 14 -65 26 -229 26
-362 l0 -145 37 37 37 38 -2 117 c-3 160 -10 247 -32 383 -22 142 -21 237 4
274 10 16 39 37 64 48 26 11 62 27 80 36 38 19 107 90 124 127 6 14 14 25 18
25 12 0 47 -158 75 -334 14 -88 28 -162 31 -165 10 -10 64 62 64 84 0 47 -44
260 -86 414 -25 91 -42 171 -39 179 3 7 0 56 -6 108 l-11 94 65 70 c60 65 82
104 126 224 12 32 115 -249 151 -414 29 -130 52 -200 65 -200 3 0 14 18 25 40
l20 40 -35 162 c-40 185 -104 359 -197 535 l-60 113 11 52 c10 45 21 61 79
118 63 60 115 144 149 238 7 21 14 13 62 -70 30 -52 94 -196 145 -326 50 -129
95 -235 100 -235 5 -1 16 26 23 59 l14 62 -72 168 c-39 93 -114 249 -166 347
-97 182 -122 251 -123 342 0 44 5 58 40 103 21 29 47 78 56 107 17 53 18 54
37 37 40 -36 186 -241 256 -360 39 -67 76 -120 81 -117 6 4 10 28 10 55 0 45
-8 60 -99 197 -54 81 -132 192 -173 245 -71 92 -75 99 -81 161 -8 84 -35 160
-82 228 -35 50 -37 58 -32 108 4 34 14 65 26 80 21 26 78 118 84 136 12 34
178 -163 334 -397 65 -98 122 -178 126 -178 4 0 4 30 1 67 -6 59 -14 79 -67
162 -83 133 -187 270 -284 376 -71 77 -83 95 -83 125 0 50 -26 154 -50 200
-11 22 -39 63 -63 92 l-43 53 20 60 c14 45 20 89 20 173 1 61 2 112 4 112 11
0 244 -234 354 -354 73 -81 135 -146 138 -146 3 0 3 26 0 58 l-5 59 -135 142
c-74 79 -206 208 -292 288 -87 80 -158 148 -158 152 0 3 -11 18 -24 32 l-24
26 19 69 c24 84 35 259 21 334 -6 30 -9 56 -7 58 2 3 88 -56 210 -145 28 -20
103 -76 168 -126 64 -49 120 -87 123 -84 3 3 3 24 -1 46 -6 38 -16 48 -118
129 -61 48 -181 138 -266 199 -151 110 -155 114 -195 189 -23 42 -69 107 -103
144 l-62 67 0 114 c0 63 -5 136 -10 164 -5 27 -8 51 -6 53 2 2 92 -61 202
-140 262 -190 263 -191 269 -185 3 2 -5 29 -16 59 -20 55 -21 55 -258 224
l-237 168 -38 78 c-21 43 -61 106 -88 141 -62 77 -174 168 -246 199 l-53 23
-36 113 c-20 63 -34 115 -32 116 2 2 138 -59 303 -135 165 -76 304 -139 309
-139 12 0 -2 62 -17 77 -7 7 -120 63 -252 124 -460 212 -404 180 -453 260 -53
84 -205 297 -280 392 -30 38 -52 70 -50 72 6 6 134 -14 208 -32 36 -8 101 -21
145 -29 44 -7 95 -17 114 -23 19 -6 37 -9 39 -6 5 4 -45 75 -52 75 -19 0 -189
37 -256 55 -47 13 -127 29 -179 36 -107 14 -91 3 -242 168 -57 62 -153 159
-214 215 -60 55 -108 103 -105 106 3 3 104 4 225 2 l220 -3 -34 29 c-41 35
-97 42 -343 42 l-159 0 -113 88 c-62 49 -152 115 -200 147 -47 32 -83 61 -81
64 3 3 106 7 228 10 l222 6 -42 23 c-40 21 -53 22 -279 22 l-237 0 -51 32
c-28 17 -132 73 -231 124 -146 75 -175 94 -155 98 14 3 103 10 198 17 165 11
196 19 174 41 -9 9 -258 51 -497 84 -297 40 -641 110 -920 185 -414 113 -716
217 -919 319 -137 68 -158 115 -73 164 114 65 190 73 732 74 358 2 397 0 473
-18z m-1549 -19 c35 -7 88 -23 118 -37 102 -48 108 -107 18 -154 -286 -146
-635 -265 -1150 -394 -260 -64 -485 -108 -705 -136 -107 -14 -476 -68 -512
-76 -18 -3 -28 -12 -28 -23 0 -16 18 -19 153 -29 83 -7 168 -12 188 -12 20 0
39 -3 42 -7 4 -3 -64 -43 -151 -88 -87 -44 -185 -98 -219 -118 l-61 -37 -247
0 c-239 0 -249 -1 -284 -22 l-36 -23 145 -6 c80 -4 185 -7 234 -8 l89 -1 -89
-62 c-113 -78 -281 -205 -289 -218 -4 -6 -65 -10 -153 -10 -201 -1 -333 -14
-371 -36 -17 -10 -31 -22 -31 -28 0 -5 87 -7 220 -4 121 3 222 3 225 -1 2 -4
-46 -52 -107 -106 -61 -55 -163 -156 -227 -225 -64 -69 -121 -124 -128 -124
-7 1 -15 -6 -18 -16 -4 -13 -26 -20 -93 -29 -48 -7 -136 -25 -197 -41 -60 -16
-142 -34 -180 -40 -65 -11 -73 -16 -98 -51 -32 -44 -30 -45 56 -25 180 42 338
75 387 81 53 7 54 7 40 -13 -8 -11 -55 -73 -104 -137 -74 -97 -246 -347 -258
-374 -2 -4 -153 -76 -336 -160 -182 -85 -336 -159 -341 -165 -15 -19 -30 -76
-21 -76 5 0 128 55 272 121 145 67 286 131 313 144 l50 22 -39 -121 -39 -121
-77 -38 c-134 -65 -255 -198 -320 -349 -14 -32 -29 -58 -33 -58 -5 0 -114 -74
-242 -165 -244 -174 -232 -162 -272 -262 -3 -7 0 -13 5 -13 6 0 115 74 243
165 128 91 234 163 236 161 2 -2 -1 -25 -7 -51 -6 -26 -11 -103 -11 -171 0
-72 -4 -124 -9 -124 -17 0 -127 -146 -157 -208 -26 -55 -39 -67 -202 -188 -96
-71 -218 -163 -271 -205 -91 -72 -97 -79 -103 -120 -3 -24 -4 -45 -2 -47 2 -2
70 48 152 110 81 63 184 139 228 168 44 29 90 62 103 74 l24 21 -9 -65 c-13
-104 -6 -247 16 -333 l21 -79 -25 -31 c-13 -18 -90 -93 -171 -167 -81 -74
-214 -204 -295 -289 -144 -150 -149 -156 -149 -197 0 -23 -3 -50 -7 -60 -13
-34 17 -6 145 136 113 125 301 310 351 346 14 11 16 0 13 -100 -3 -90 0 -123
17 -176 l20 -65 -29 -30 c-71 -74 -130 -217 -130 -315 0 -26 -16 -50 -88 -128
-156 -172 -325 -412 -343 -490 -12 -51 -11 -112 1 -112 6 0 10 4 10 8 0 14
205 317 274 406 37 46 90 105 118 130 l50 46 28 -57 c15 -32 39 -72 54 -90 18
-21 29 -48 33 -82 5 -46 3 -55 -31 -104 -46 -66 -73 -137 -81 -214 -7 -55 -14
-69 -94 -179 -48 -66 -90 -126 -93 -134 -3 -8 -42 -71 -87 -140 -72 -111 -81
-130 -81 -172 0 -26 4 -49 9 -52 5 -3 41 50 80 118 84 146 263 390 275 375 1
-2 11 -26 21 -54 10 -27 35 -75 56 -105 69 -99 54 -178 -85 -437 -100 -187
-236 -497 -236 -535 0 -36 25 -123 32 -112 4 5 43 104 88 219 50 129 107 256
148 329 l67 118 12 -41 c21 -74 77 -165 139 -226 68 -67 78 -84 88 -136 5 -30
-2 -50 -49 -139 -95 -177 -161 -351 -202 -535 l-36 -166 22 -47 23 -47 18 35
c9 19 31 99 49 177 34 158 137 435 152 411 5 -7 9 -20 9 -29 0 -36 73 -160
126 -214 l55 -56 -7 -107 c-4 -78 -17 -146 -46 -250 -22 -79 -53 -211 -69
-294 -29 -150 -29 -150 -9 -177 10 -15 26 -33 34 -40 17 -14 17 -15 46 174 11
72 32 176 47 232 l27 102 37 -57 c50 -78 81 -105 170 -146 42 -19 84 -45 93
-57 23 -33 20 -110 -9 -279 -17 -96 -28 -201 -31 -315 l-6 -170 41 -40 41 -39
0 154 c1 148 13 333 26 372 5 16 10 13 33 -19 40 -55 111 -115 181 -152 l60
-32 0 -57 c0 -32 6 -82 14 -112 12 -45 12 -94 4 -294 l-11 -239 39 -36 39 -36
3 212 2 212 66 -64 c49 -49 90 -77 170 -117 l106 -53 23 -70 c12 -38 40 -178
60 -310 37 -238 38 -240 71 -274 18 -19 35 -33 38 -30 2 2 -9 98 -25 213 -16
115 -27 211 -25 213 2 2 16 -7 32 -20 43 -36 131 -82 194 -102 69 -22 74 -26
90 -76 8 -23 36 -65 62 -94 l47 -52 15 -124 c26 -201 52 -340 67 -350 17 -11
59 -23 64 -18 2 2 -9 81 -25 174 -15 94 -31 195 -35 226 l-6 56 55 -18 c30
-10 87 -22 126 -25 70 -7 73 -8 87 -41 7 -19 32 -54 54 -78 39 -42 42 -50 121
-352 l81 -309 39 -23 c22 -12 42 -20 45 -17 3 2 -2 26 -11 53 -18 57 -76 289
-106 423 -11 52 -23 102 -26 111 -4 14 2 14 50 -2 30 -11 88 -24 128 -30 90
-14 100 -18 111 -55 11 -35 70 -99 106 -114 24 -10 29 -22 60 -167 19 -86 51
-213 71 -282 l37 -126 -35 -40 c-19 -22 -62 -68 -95 -103 l-59 -63 -237 -9
c-130 -5 -395 -12 -588 -15 l-353 -7 -51 32 c-29 17 -60 33 -70 35 -10 2 -102
66 -204 142 -152 113 -181 139 -161 141 13 2 170 -8 348 -22 178 -14 431 -28
563 -31 l240 -7 -35 35 -35 35 -315 11 c-173 6 -421 20 -550 31 -129 12 -259
22 -288 24 -58 3 -65 8 -227 150 -129 112 -377 348 -372 353 3 2 134 -21 293
-51 159 -30 429 -75 599 -101 171 -25 326 -48 345 -51 l35 -6 -43 44 c-40 41
-49 46 -104 52 -122 12 -510 78 -838 141 -185 36 -344 65 -356 65 -11 0 -44
25 -75 58 -96 99 -313 352 -307 357 2 2 275 -70 608 -160 333 -89 607 -160
610 -158 3 3 -14 22 -38 42 -40 35 -62 43 -300 106 -203 54 -859 235 -944 261
-23 7 -403 524 -385 524 3 0 126 -50 274 -111 311 -128 461 -187 703 -274 96
-35 183 -66 193 -70 29 -12 19 11 -25 58 -40 43 -60 52 -308 147 -146 56 -412
163 -592 237 l-327 136 -89 151 c-49 83 -106 181 -126 218 l-37 67 103 -48
c57 -27 166 -79 243 -116 150 -72 746 -318 753 -310 2 2 -6 23 -19 46 -24 42
-27 44 -299 159 -151 64 -396 174 -543 244 -148 70 -271 125 -274 123 -2 -3 0
-15 7 -26 6 -12 8 -21 5 -21 -13 0 -271 547 -262 556 2 2 107 -57 233 -132
126 -75 269 -157 319 -181 163 -81 407 -194 411 -190 2 2 -15 29 -39 60 -40
55 -50 60 -242 156 -110 54 -316 166 -459 250 -142 83 -262 149 -266 146 -14
-9 -249 669 -236 682 1 2 23 -14 47 -35 184 -161 881 -743 885 -740 2 3 -6 30
-19 61 -25 61 -14 52 -687 631 -178 153 -267 237 -272 255 -45 159 -129 526
-137 601 -7 52 -14 111 -16 130 l-5 35 35 -40 c20 -22 79 -96 132 -165 228
-295 347 -435 502 -592 90 -93 167 -168 171 -168 4 0 2 27 -5 60 -14 65 -6 56
-240 305 -168 179 -289 329 -440 540 -70 99 -132 184 -136 189 -5 6 -12 -5
-16 -25 -7 -30 -9 -24 -14 41 -9 105 -8 753 0 710 11 -53 217 -377 464 -728
202 -287 234 -330 241 -321 1 2 0 30 -2 62 -4 58 -6 62 -354 580 l-350 522 7
110 c11 197 65 659 78 671 2 2 67 -157 144 -354 120 -301 366 -869 387 -889 3
-4 6 25 6 64 0 66 -5 81 -91 279 -50 115 -165 399 -256 632 l-165 423 27 127
c29 140 112 468 124 489 4 8 86 -203 206 -532 109 -300 202 -545 206 -545 4 0
10 35 13 78 l7 77 -190 547 -190 547 43 128 c92 268 284 723 305 723 4 0 30
-263 60 -584 62 -684 62 -676 71 -676 4 0 17 32 28 71 l22 71 -57 612 c-31
336 -60 613 -65 614 -10 4 79 177 178 344 82 138 205 330 210 326 1 -2 -2 -71
-7 -153 -14 -238 -24 -1065 -12 -1065 6 0 22 27 37 61 26 60 26 62 27 327 0
147 5 330 10 407 5 77 12 231 15 342 l7 202 114 152 c161 216 399 497 410 485
3 -2 -21 -112 -51 -244 -71 -304 -109 -491 -135 -667 -12 -77 -23 -150 -26
-162 -9 -39 18 -26 51 25 26 40 36 79 73 272 57 296 121 578 171 746 22 76 40
145 40 154 0 40 486 477 507 456 3 -3 -31 -112 -76 -243 -44 -131 -101 -308
-126 -393 -25 -85 -55 -181 -67 -213 -11 -32 -19 -59 -17 -61 2 -2 25 15 51
38 l46 41 75 240 c41 132 109 339 151 460 l75 220 120 81 c104 71 366 234 375
234 16 0 -33 -109 -155 -345 -79 -154 -146 -285 -147 -293 -2 -8 21 3 52 24
l55 39 153 319 153 319 110 58 c61 32 163 83 229 114 l118 55 -21 -36 c-12
-20 -76 -128 -143 -240 -66 -113 -119 -207 -117 -209 3 -2 22 4 44 14 35 15
53 40 189 266 l151 249 115 46 c179 72 292 111 284 98 -4 -6 -56 -82 -116
-167 -60 -85 -107 -159 -105 -165 2 -6 11 -10 20 -10 8 1 107 64 219 141 359
246 783 464 1039 533 70 19 100 20 544 16 298 -2 493 -8 534 -15z m329 -220
c17 -12 60 -34 95 -48 34 -13 76 -31 92 -39 58 -26 212 -82 365 -132 443 -144
869 -242 1390 -317 140 -21 259 -41 263 -45 5 -4 -49 -11 -120 -14 -149 -8
-163 -11 -163 -34 0 -12 38 -35 126 -77 473 -222 980 -596 1327 -978 l79 -87
-22 -30 c-12 -16 -18 -35 -14 -41 5 -8 3 -9 -6 -4 -10 6 -11 1 -6 -21 5 -22 4
-26 -4 -14 -11 14 -10 -2 3 -125 1 -12 26 -53 55 -92 178 -240 293 -536 348
-893 25 -160 25 -501 1 -660 -60 -385 -201 -727 -397 -960 -138 -164 -410
-456 -533 -572 -74 -70 -156 -156 -182 -190 -96 -128 -163 -300 -184 -470 -41
-346 -170 -709 -361 -1018 -103 -166 -274 -312 -520 -441 -151 -80 -218 -101
-357 -115 -89 -8 -113 5 -194 103 -118 144 -198 289 -259 472 -32 94 -37 117
-25 119 8 2 15 10 15 17 0 7 5 15 12 17 8 3 -10 39 -48 99 -101 156 -146 233
-294 494 -159 280 -170 297 -255 378 -109 106 -240 156 -469 178 -139 13 -380
7 -481 -12 -107 -20 -180 -70 -227 -158 -17 -30 -19 -31 -86 -31 -86 0 -149
-19 -218 -64 -120 -80 -158 -223 -106 -393 8 -29 19 -53 24 -53 4 0 8 -8 8
-17 1 -14 6 -11 24 11 24 29 24 29 109 23 145 -12 298 -71 381 -147 89 -82
128 -228 91 -341 -44 -134 -211 -370 -402 -565 -83 -86 -116 -113 -143 -119
-19 -4 -41 -12 -47 -17 -17 -14 -145 -2 -253 23 -106 24 -292 115 -412 201
-161 117 -250 204 -318 313 -176 278 -290 576 -344 895 -48 285 -57 325 -91
403 -61 143 -93 185 -305 402 -307 314 -544 578 -616 686 -157 236 -268 550
-315 899 -21 149 -16 457 10 626 34 224 107 466 194 639 40 79 121 210 162
261 18 22 33 51 33 65 0 13 3 46 6 74 5 48 -10 98 -46 147 -11 16 4 34 127
159 401 404 795 691 1252 911 106 52 143 74 143 88 0 19 -13 21 -220 37 -114
8 -122 6 235 58 409 60 699 121 1065 225 217 62 555 175 643 214 28 13 63 27
77 31 51 15 138 65 171 97 l34 33 25 -21 c14 -11 40 -31 58 -43z m4180 -3074
c33 -88 71 -277 84 -413 6 -71 15 -133 19 -138 13 -14 39 13 39 40 0 29 40 35
41 7 0 -10 4 -56 8 -103 9 -91 -6 -318 -35 -515 -34 -238 -100 -516 -174 -734
-23 -66 -38 -126 -34 -132 4 -7 3 -9 -4 -5 -13 8 -26 -29 -16 -45 4 -7 3 -9
-3 -6 -6 4 -18 -11 -28 -36 -25 -62 -28 -75 -11 -47 17 28 22 20 6 -10 -13
-25 -31 -20 -77 21 l-38 34 32 65 c18 36 53 126 77 200 107 327 156 676 156
1111 0 317 -11 425 -77 732 -10 47 15 30 35 -26z m-8533 -112 c-106 -631 -51
-1320 145 -1828 26 -67 47 -107 56 -107 21 0 17 -11 -25 -57 l-38 -43 -41 103
c-167 427 -277 961 -275 1347 0 85 5 169 11 185 l10 30 7 -32 c7 -32 24 -46
26 -20 0 6 5 1 10 -12 16 -41 25 -11 38 124 6 72 20 171 31 220 21 95 61 237
66 233 1 -2 -8 -66 -21 -143z m8892 -857 c-7 -145 -27 -279 -58 -402 -11 -43
-19 -88 -17 -100 3 -19 8 -16 51 25 26 26 47 41 47 35 0 -6 -9 -70 -19 -142
-35 -235 -99 -457 -186 -641 -24 -51 -42 -93 -39 -93 10 0 96 189 135 295 22
61 37 97 34 80 -10 -48 -74 -214 -113 -290 -37 -75 -118 -205 -127 -205 -3 0
7 19 23 43 35 51 49 76 35 62 -15 -15 -83 -114 -83 -121 0 -3 5 -2 10 1 18 11
11 -1 -12 -21 -22 -19 -23 -19 -8 1 11 15 7 14 -13 -4 -26 -24 -38 -49 -16
-36 7 5 8 -5 3 -32 -9 -52 -25 -90 -18 -42 7 46 -21 187 -51 256 l-24 52 26
53 c126 262 279 750 358 1143 35 174 46 215 58 215 7 0 8 -44 4 -132z m-9193
-53 c69 -363 191 -775 318 -1070 l65 -150 -19 -42 c-10 -23 -25 -73 -34 -112
-9 -39 -20 -68 -25 -66 -20 13 -123 180 -164 268 -88 184 -168 473 -193 695
l-8 72 25 -24 c14 -13 36 -29 49 -35 20 -11 22 -9 22 12 0 13 -9 59 -20 101
-34 133 -76 550 -51 506 5 -8 21 -78 35 -155z m8404 -157 c-49 -173 -140 -380
-223 -510 -114 -176 -311 -406 -436 -510 -244 -204 -374 -429 -409 -711 -34
-271 -120 -554 -246 -806 -94 -189 -180 -319 -268 -405 -300 -289 -563 -434
-861 -473 l-41 -5 -19 58 c-11 33 -20 63 -20 68 0 5 41 17 90 27 195 37 370
120 492 232 24 22 41 43 38 47 -3 5 19 27 47 51 137 112 224 198 266 264 67
103 185 336 227 445 72 188 134 434 156 615 18 152 67 292 145 412 20 32 123
144 228 248 246 244 524 551 601 664 33 48 83 131 110 184 28 53 55 97 61 97
6 0 23 18 38 40 14 22 30 40 35 40 5 0 0 -33 -11 -72z m-7632 10 c5 1 17 -7
27 -15 9 -9 17 -12 17 -7 0 5 23 -34 51 -86 81 -151 153 -253 267 -376 59 -63
157 -170 217 -238 61 -68 179 -190 263 -271 170 -166 233 -248 282 -377 33
-83 37 -104 86 -387 54 -315 149 -572 314 -851 39 -66 83 -135 99 -152 16 -18
32 -44 36 -57 12 -40 164 -189 253 -248 155 -104 347 -170 555 -194 102 -11
106 -13 117 -40 7 -15 20 -35 31 -45 13 -12 16 -21 9 -34 -5 -10 -7 -20 -4
-23 3 -3 0 -8 -7 -13 -8 -4 -10 -3 -5 4 4 7 3 12 -3 12 -5 0 -13 -5 -16 -11
-8 -13 -246 -4 -345 13 -172 29 -394 162 -619 369 -102 94 -137 135 -201 230
-82 125 -176 307 -233 454 -67 171 -136 448 -152 610 -15 148 -85 325 -178
451 -25 34 -93 108 -153 165 -261 252 -294 289 -467 518 -76 101 -193 336
-245 492 -47 141 -54 182 -23 136 10 -16 22 -29 27 -29z m7738 25 c-4 -22 -3
-25 5 -13 8 11 10 -16 7 -100 -3 -86 -2 -101 4 -60 10 68 4 -405 -7 -500 -7
-60 -8 -62 -15 -30 -4 23 -5 11 -3 -35 3 -52 1 -62 -5 -40 -7 23 -8 16 -5 -30
3 -44 2 -54 -5 -35 -8 22 -9 20 -7 -12 2 -21 0 -38 -4 -38 -3 0 -12 -35 -18
-77 -26 -168 -91 -402 -179 -642 -38 -103 -129 -264 -267 -471 -247 -369 -539
-696 -898 -1003 -183 -157 -356 -263 -608 -370 -117 -50 -350 -127 -450 -150
l-66 -14 -20 63 c-19 58 -20 64 -4 68 9 2 70 17 136 32 243 54 465 189 713
433 182 179 365 513 461 844 34 116 75 307 86 402 9 86 42 209 76 289 59 139
144 240 401 478 167 155 369 419 462 605 40 81 84 188 115 282 11 34 32 76 46
92 14 17 25 35 25 40 0 6 5 7 10 4 6 -3 10 -1 10 4 0 6 2 11 5 11 3 0 3 -12
-1 -27z m-7814 -53 c1 8 20 -39 43 -105 119 -335 352 -675 634 -923 93 -82
215 -219 268 -302 78 -119 114 -226 140 -410 52 -370 171 -707 356 -1002 84
-134 112 -167 247 -286 225 -201 468 -343 640 -376 46 -9 91 -20 100 -25 9 -5
53 -15 97 -22 44 -7 82 -14 84 -16 9 -6 -25 -69 -49 -90 -32 -29 -63 -28 -185
1 -276 68 -577 197 -820 353 -181 117 -610 526 -817 778 -236 290 -497 692
-558 860 -91 253 -139 413 -165 560 -9 50 -22 122 -30 160 -37 186 -60 682
-39 838 l6 45 24 -26 c16 -19 24 -22 24 -12z m-776 -845 c99 -199 218 -380
356 -545 37 -44 48 -67 59 -119 7 -36 24 -87 37 -113 l25 -49 -29 -42 c-16
-23 -37 -57 -46 -74 -9 -18 -22 -33 -29 -33 -25 1 -284 394 -363 550 -34 69
-114 276 -114 297 0 3 12 -2 26 -12 22 -14 74 -28 74 -20 0 1 -20 45 -44 98
-64 138 -96 247 -102 347 l-5 85 40 -110 c22 -60 74 -177 115 -260z m9453 283
c-6 -92 -39 -198 -106 -342 -23 -49 -39 -91 -37 -93 2 -2 20 5 40 17 20 11 39
20 42 20 12 0 -8 -76 -42 -165 -65 -169 -186 -373 -351 -592 -46 -62 -86 -113
-88 -113 -2 0 -24 33 -49 74 l-46 73 29 63 c16 34 35 93 42 131 7 38 15 69 19
69 14 0 165 197 245 320 129 196 230 400 281 563 10 31 20 57 22 57 3 0 2 -37
-1 -82z m-745 -389 c4 -19 16 -59 27 -90 11 -30 23 -86 27 -122 6 -64 6 -67
-15 -67 -12 0 -30 6 -41 13 -17 10 -22 9 -30 -3 -7 -12 -12 -12 -34 0 -14 7
-29 11 -32 7 -3 -3 -1 -36 5 -72 7 -37 9 -86 6 -109 -6 -40 -8 -42 -36 -38
-16 2 -29 0 -29 -5 0 -6 -12 -8 -27 -6 -27 4 -27 3 5 -11 28 -13 32 -20 34
-58 3 -84 -4 -154 -22 -209 -20 -67 -205 -348 -336 -514 -100 -126 -448 -478
-542 -548 -73 -54 -118 -65 -62 -15 19 17 87 77 151 134 129 115 297 296 421
455 112 144 278 394 301 454 31 79 36 315 7 315 -4 0 -4 -17 1 -37 14 -62 10
-145 -11 -226 -16 -66 -34 -100 -132 -244 -134 -200 -276 -380 -413 -522 -99
-103 -276 -268 -341 -317 -31 -24 -35 -25 -49 -10 -15 15 -7 26 92 134 428
462 736 949 964 1521 l53 134 14 -33 c7 -18 17 -58 21 -89 l9 -56 0 45 c1 25
-7 70 -18 100 -16 46 -17 61 -8 93 13 45 30 43 40 -4z m-8056 -47 c6 -4 37
-72 68 -152 68 -171 207 -461 295 -615 149 -261 372 -571 583 -812 173 -197
539 -537 681 -633 29 -19 101 -62 160 -96 59 -34 102 -64 96 -66 -8 -3 -14
-36 -17 -91 -4 -86 -5 -87 -31 -87 -14 0 -46 6 -71 14 -132 41 -232 96 -314
175 -81 77 -114 137 -152 278 -2 8 -13 3 -29 -13 -35 -35 -55 -18 -55 43 0 39
-2 44 -17 38 -48 -20 -58 -13 -61 46 -3 48 1 61 23 87 l26 31 -29 33 c-26 28
-32 30 -46 19 -9 -7 -16 -20 -16 -27 0 -19 -29 -17 -65 4 -16 10 -100 82 -185
159 -238 214 -423 432 -616 724 -123 187 -137 228 -132 389 l3 105 -35 -2
c-19 0 -47 -4 -62 -8 -24 -6 -28 -4 -34 21 -4 16 -2 63 4 105 12 87 7 123 -17
115 -68 -21 -63 -23 -56 30 19 140 59 214 101 186z m-745 -417 c37 -55 98
-138 136 -185 84 -105 292 -320 310 -320 7 0 13 -5 13 -11 0 -5 5 -7 12 -3 6
4 9 3 6 -2 -18 -31 33 -269 84 -392 17 -40 28 -76 25 -79 -20 -19 -305 290
-448 486 -69 96 -209 339 -209 365 0 3 12 1 28 -5 15 -6 44 -13 65 -15 l37 -3
-48 72 c-57 84 -95 157 -128 244 -33 87 -30 89 12 13 20 -36 67 -110 105 -165z
m9599 142 c-12 -31 -52 -108 -91 -172 -38 -63 -69 -117 -69 -120 0 -3 14 2 31
11 21 10 29 11 23 3 -5 -9 -2 -10 9 -6 10 4 24 10 33 14 23 9 13 -20 -52 -152
-59 -119 -111 -193 -277 -394 -106 -127 -302 -332 -311 -324 -2 3 11 38 31 79
41 90 69 195 79 295 3 41 10 79 14 84 5 6 10 21 12 35 2 14 9 24 16 22 18 -3
215 198 316 324 48 60 124 166 169 235 45 70 83 126 85 124 1 -1 -7 -28 -18
-58z m-4969 -22 c154 -16 217 -29 273 -57 46 -23 122 -93 178 -163 l40 -50
-53 57 c-118 124 -189 158 -398 189 -116 18 -164 20 -326 15 -104 -3 -203 -8
-220 -11 l-30 -5 32 10 c35 11 199 26 303 29 36 0 126 -6 201 -14z m46 -153
c139 -30 263 -95 263 -138 0 -26 -20 -23 -81 13 -40 23 -64 32 -67 25 -6 -19
-27 -14 -52 13 -18 19 -26 22 -37 13 -10 -8 -27 -4 -71 18 -55 28 -63 29 -220
33 -230 5 -267 -1 -315 -50 -42 -42 -55 -47 -63 -25 -6 15 27 86 48 103 20 17
85 21 303 18 153 -3 222 -8 292 -23z m-674 -97 c-1 -17 -5 -52 -8 -80 -7 -48
-6 -52 34 -97 33 -37 41 -54 41 -84 0 -33 -2 -36 -13 -21 -10 15 -17 16 -44 6
-26 -8 -42 -7 -81 5 -27 9 -57 23 -68 30 -16 12 -24 11 -56 -5 -86 -44 -168
-9 -168 71 0 31 6 47 26 67 23 23 31 25 85 21 43 -3 65 -10 82 -26 25 -24 76
-29 95 -10 7 7 12 35 12 63 0 56 22 98 48 93 12 -2 16 -13 15 -33z m657 -235
c0 -13 -7 -20 -20 -20 -11 0 -20 -4 -20 -10 0 -6 -92 -10 -255 -10 l-255 0 0
30 0 30 275 0 c268 0 275 0 275 -20z m103 -124 c18 -13 42 -27 54 -30 33 -10
48 -33 33 -50 -12 -16 -38 -11 -55 10 -6 8 -21 10 -37 7 -37 -7 -37 -39 -1
-104 l26 -49 67 0 c49 0 71 -4 81 -16 20 -24 -6 -35 -73 -32 -54 3 -57 2 -52
-17 9 -30 17 -36 65 -46 36 -8 53 -6 100 12 56 20 59 21 103 4 29 -11 60 -16
85 -12 52 7 72 -6 48 -30 -13 -14 -32 -18 -75 -16 -31 1 -79 3 -105 3 -30 1
-55 -4 -65 -13 -26 -22 -80 -37 -134 -37 -41 0 -49 -3 -46 -17 5 -26 77 -63
124 -63 l42 0 98 -157 c172 -278 163 -264 182 -254 11 6 34 61 62 148 24 76
46 140 47 142 7 9 133 -124 133 -139 -1 -26 -50 -75 -65 -64 -7 5 -27 19 -44
32 l-31 23 0 -45 c0 -53 16 -182 31 -249 l11 -47 55 50 c30 27 63 50 73 50 11
0 30 -16 43 -35 l24 -35 28 30 c36 37 49 37 105 -1 25 -16 62 -39 83 -50 l38
-20 -24 -44 c-21 -37 -23 -44 -9 -47 14 -3 14 -5 -1 -20 -16 -15 -20 -15 -68
3 -79 30 -109 48 -109 65 0 13 4 13 31 -1 17 -9 33 -15 35 -12 2 2 -19 14 -46
27 -27 13 -52 21 -56 18 -3 -3 14 -66 37 -139 l41 -134 64 -48 c36 -26 68 -46
73 -43 4 3 16 33 26 67 10 33 25 63 32 66 7 3 45 -25 85 -61 51 -46 74 -62 80
-53 18 27 6 -7 -17 -51 -40 -78 -38 -76 -75 -53 -26 16 -35 17 -46 7 -11 -12
-34 -78 -34 -102 0 -6 33 -41 74 -77 l74 -66 23 34 c24 34 43 44 53 26 18 -29
84 -406 73 -417 -2 -2 -88 124 -191 280 -185 282 -188 285 -224 288 -33 3 -40
8 -62 50 -14 27 -28 48 -32 48 -3 0 -25 -22 -48 -50 -39 -46 -45 -50 -87 -50
-41 0 -50 5 -108 61 -35 33 -65 57 -68 52 -18 -33 -17 -67 4 -89 l22 -24 -471
0 c-456 0 -472 1 -472 19 0 11 9 21 24 25 21 5 25 15 34 78 6 40 9 74 7 76 -2
3 -28 -10 -56 -29 l-52 -33 -43 49 -43 49 -11 -28 c-23 -62 -22 -75 8 -141
l31 -65 -95 0 c-86 0 -94 2 -94 19 0 10 7 21 15 25 11 4 13 14 8 38 -8 43 -8
44 -39 23 -31 -20 -35 -16 -59 50 -10 28 -21 54 -25 58 -4 5 -20 -13 -35 -40
-53 -90 -52 -90 -66 -60 -7 15 -15 27 -19 27 -15 0 -59 -97 -53 -118 4 -18 1
-22 -19 -22 -20 0 -37 -18 -92 -100 -65 -98 -86 -114 -86 -65 0 38 -16 38 -44
0 -25 -32 -26 -40 -20 -95 6 -54 4 -64 -20 -100 -29 -44 -45 -50 -53 -20 -7
28 -14 25 -47 -21 -25 -36 -28 -46 -22 -90 6 -42 3 -54 -19 -86 l-25 -38 0 42
c0 78 20 146 54 183 42 45 78 109 70 122 -4 6 -24 8 -48 5 -22 -3 -34 -3 -25
-1 10 3 20 20 23 39 5 27 27 51 119 127 62 52 133 107 159 122 72 42 75 51 25
65 -74 23 -84 29 -91 56 -13 53 52 135 108 135 15 0 16 2 6 15 -10 12 -24 14
-57 9 -29 -4 -43 -3 -43 5 0 7 10 9 28 5 18 -4 23 -2 14 4 -10 7 -9 18 5 57
10 27 22 49 28 49 5 1 16 -18 25 -41 21 -57 35 -70 55 -53 12 10 15 10 15 -1
0 -7 25 11 55 41 58 57 68 85 35 95 -30 10 -34 45 -11 113 12 34 21 69 21 79
1 10 7 29 14 42 13 23 14 23 19 5 3 -10 9 -40 13 -66 7 -53 29 -81 45 -57 7
12 10 12 18 1 6 -10 24 8 65 66 61 87 66 98 37 83 -16 -9 -18 -8 -14 9 6 22
-3 25 -27 10 -18 -11 -31 6 -25 35 2 11 7 38 10 59 l7 39 24 -29 c17 -20 27
-25 31 -16 4 10 8 10 19 1 8 -7 16 -10 18 -8 36 45 86 134 86 155 0 22 -3 25
-12 16 -18 -18 -28 -14 -28 12 0 19 -4 23 -20 19 -18 -5 -20 0 -20 39 0 45 13
129 25 159 6 16 -34 43 -65 44 -8 0 -15 5 -15 10 -1 6 -9 24 -18 42 -9 18 -17
49 -17 70 0 31 -5 42 -30 58 -37 24 -49 60 -27 82 14 14 18 10 47 -47 65 -129
221 -249 370 -284 36 -9 104 -16 152 -16 84 0 87 1 112 31 30 35 31 42 11 59
-11 9 -15 9 -15 1 0 -17 -372 -11 -378 7 -3 9 39 12 190 12 177 0 191 1 166
15 -16 8 -40 22 -55 30 -16 8 -38 15 -50 15 -39 0 -128 39 -155 68 -40 43 -59
89 -56 135 l3 42 85 11 c90 12 169 44 205 84 l20 22 3 -46 c3 -38 8 -50 35
-70z m-4055 13 c315 -425 610 -716 988 -977 l113 -77 1 -76 c0 -42 3 -97 6
-123 6 -39 4 -46 -10 -46 -64 0 -517 309 -648 441 -109 111 -200 275 -237 425
-31 130 -36 133 -71 63 -11 -21 -26 -39 -34 -39 -21 0 -62 87 -86 180 -29 113
-31 116 -60 85 -13 -14 -29 -25 -36 -25 -20 0 -44 77 -44 141 0 62 23 123 45
116 5 -2 38 -41 73 -88z m8126 40 c9 -44 8 -71 -5 -129 -8 -38 -15 -50 -25
-46 -9 4 -18 -3 -23 -16 -8 -22 -8 -22 -34 6 -30 32 -29 33 -47 -54 -6 -30
-21 -81 -32 -113 -20 -54 -21 -57 -35 -37 -19 27 -33 25 -33 -5 0 -28 -15 -33
-24 -9 -4 9 -9 14 -12 11 -3 -3 1 -18 9 -34 14 -26 13 -35 -7 -98 -67 -208
-180 -352 -423 -537 -163 -125 -454 -301 -470 -284 -2 2 22 18 54 36 179 101
424 276 546 390 122 114 221 283 263 449 19 72 21 96 12 102 -17 11 -28 1 -28
-24 0 -36 -38 -163 -70 -233 -70 -156 -174 -274 -367 -421 -115 -88 -382 -263
-399 -263 -5 0 -9 60 -9 134 0 74 3 129 6 124 15 -24 368 240 579 434 171 157
395 412 510 582 25 36 48 66 51 66 4 0 9 -14 13 -31z m-4978 -8 c16 -6 55 -15
86 -21 32 -6 68 -20 80 -31 23 -19 23 -19 4 -34 -41 -32 -146 -12 -218 41 -27
19 -48 39 -48 44 0 13 58 13 96 1z m-3930 -63 c110 -142 350 -370 529 -504
133 -100 150 -110 142 -91 -5 14 -4 15 13 5 17 -11 19 -21 13 -104 -7 -102 6
-190 39 -267 12 -26 19 -50 16 -53 -20 -19 -431 357 -562 516 -61 73 -122 167
-115 175 2 2 29 -5 58 -15 47 -15 56 -16 68 -4 12 12 4 25 -55 92 -70 80 -135
170 -166 229 -19 39 -37 83 -32 83 2 0 25 -28 52 -62z m9662 21 c-17 -51 -121
-201 -187 -271 -33 -36 -61 -70 -61 -76 0 -6 30 -1 72 14 39 13 76 24 80 24
13 0 -46 -103 -96 -169 -65 -86 -273 -298 -394 -400 -61 -52 -109 -98 -106
-102 2 -4 -1 -11 -7 -15 -8 -4 -9 -3 -5 4 4 7 3 12 -2 12 -13 0 -33 -25 -26
-32 3 -3 0 -9 -7 -14 -8 -5 -10 -3 -4 6 6 10 4 12 -9 7 -15 -6 -17 -4 -11 10
38 91 52 211 35 301 -10 59 -10 64 12 92 13 16 29 27 37 24 44 -14 481 367
636 556 28 33 51 60 52 60 1 0 -3 -14 -9 -31z m-8763 -725 c186 -157 590 -440
863 -603 l172 -104 0 -98 c0 -53 3 -105 7 -115 12 -32 -83 -8 -203 51 -279
136 -520 346 -614 535 -37 74 -49 81 -108 66 l-50 -14 -22 41 c-36 63 -53 77
-75 60 -33 -23 -52 -15 -69 27 -16 40 -22 172 -10 204 10 27 29 18 109 -50z
m7903 -36 c-4 -101 -22 -155 -51 -150 -9 2 -17 -2 -17 -8 0 -7 -9 -5 -22 4
-31 22 -48 20 -48 -5 0 -12 -10 -37 -21 -56 -20 -32 -24 -34 -63 -28 -22 4
-49 9 -58 11 -13 4 -24 -8 -43 -46 -15 -29 -22 -50 -17 -46 5 3 16 23 26 44
14 31 22 38 38 34 23 -6 20 -15 -25 -91 -110 -183 -330 -367 -602 -502 -121
-60 -171 -76 -190 -62 -14 11 -7 263 7 263 17 0 293 170 488 300 180 120 365
255 503 367 44 35 83 63 89 63 6 0 9 -35 6 -92z m733 -45 c-10 -25 -114 -108
-230 -185 -52 -34 -51 -48 3 -48 25 0 46 -3 46 -8 0 -20 -139 -189 -210 -254
-128 -120 -316 -248 -422 -288 -29 -11 -54 -20 -55 -20 -1 0 3 15 8 33 6 17 9
93 7 167 l-3 135 195 100 c260 134 484 267 625 373 22 17 42 29 44 27 2 -3 -2
-17 -8 -32z m-8966 -300 c61 -34 171 -92 246 -129 l136 -67 -4 -101 c-3 -69 0
-118 11 -156 8 -30 13 -57 10 -59 -8 -8 -94 31 -177 81 -178 106 -350 254
-452 391 -45 59 -46 62 -25 65 28 5 50 25 50 46 0 9 -40 43 -90 76 -99 67
-156 113 -170 141 -6 9 72 -37 173 -105 100 -67 232 -149 292 -183z m7085 116
c23 -45 16 -134 -9 -124 -49 21 -51 20 -50 -31 l2 -49 7 40 8 40 -2 -39 c-1
-35 -4 -40 -29 -43 -17 -2 -29 2 -33 11 -9 22 -39 12 -42 -15 -2 -20 -1 -21 8
-9 9 11 10 7 5 -20 -9 -43 -66 -155 -80 -155 -16 0 -35 -15 -35 -27 0 -7 6 -6
15 2 32 26 13 2 -31 -40 -26 -25 -44 -39 -40 -32 12 20 -1 14 -51 -24 -25 -19
-73 -49 -104 -65 -58 -29 -200 -79 -224 -79 -9 0 -14 27 -17 87 -3 55 -9 88
-17 91 -6 2 44 35 111 74 67 39 143 84 168 101 41 28 236 193 355 301 28 25
54 44 59 42 5 -1 17 -18 26 -37z m975 -376 c13 -118 -45 -283 -103 -291 -25
-4 -29 10 -8 27 26 22 57 111 61 179 l4 67 -9 -63 c-5 -34 -21 -88 -36 -120
l-26 -57 -13 29 -13 30 -18 -35 -19 -34 -3 43 c-2 23 -6 42 -10 42 -4 0 -22
-27 -41 -60 -37 -64 -51 -74 -51 -37 -1 20 -2 19 -17 -8 l-17 -30 -11 38 c-12
44 -14 43 -60 -37 -15 -27 -58 -79 -94 -115 -49 -49 -55 -57 -22 -32 46 37
112 114 139 165 14 27 17 28 20 11 2 -11 8 -25 13 -31 6 -7 1 -22 -13 -40 -71
-96 -182 -184 -291 -234 -70 -32 -252 -85 -329 -96 -75 -10 -58 12 25 31 111
27 227 65 280 91 69 35 58 38 -17 4 -55 -25 -207 -72 -309 -94 -29 -7 -29 -7
-22 31 3 22 1 70 -5 108 -10 62 -9 70 7 85 10 9 81 40 158 70 266 100 531 232
735 364 47 30 90 55 97 55 6 1 14 -23 18 -56z m-7440 -60 c147 -93 426 -230
636 -312 101 -40 189 -78 194 -84 6 -7 9 -55 7 -116 l-3 -103 -52 6 c-76 10
-201 44 -288 77 -138 53 -268 162 -338 282 -17 29 -31 45 -31 37 0 -9 -6 -5
-14 10 l-14 24 -11 -42 c-7 -23 -16 -42 -21 -42 -5 0 -25 27 -46 60 -20 33
-41 57 -45 54 -5 -3 -12 2 -15 10 -10 27 -24 7 -24 -35 0 -31 -4 -39 -18 -39
-34 0 -76 106 -88 221 -8 82 3 100 46 71 14 -9 70 -45 125 -79z m8252 80 c6
-16 -147 -154 -258 -235 -129 -94 -130 -121 -3 -81 30 9 56 14 60 11 35 -35
-205 -236 -436 -366 -118 -66 -263 -130 -314 -139 l-34 -5 9 48 c5 27 7 90 4
139 l-6 90 50 56 c48 54 57 59 161 93 273 90 510 214 684 358 56 47 76 54 83
31z m-9170 -58 c186 -144 325 -228 498 -300 140 -59 306 -109 315 -95 4 6 25
-14 47 -44 40 -54 40 -55 32 -115 -8 -58 1 -176 17 -215 6 -17 4 -18 -22 -13
-16 3 -38 8 -49 11 -11 4 -6 0 10 -8 17 -8 40 -15 53 -16 12 0 22 -5 22 -11 0
-15 -31 -6 -144 38 -160 63 -369 178 -451 248 -16 14 11 -1 60 -33 50 -32 119
-75 155 -94 78 -43 260 -122 266 -115 2 2 -17 12 -43 22 -72 27 -217 101 -305
156 -143 89 -319 232 -344 281 -17 33 -18 32 36 13 53 -19 94 -19 109 -2 11
14 6 22 -44 57 l-20 15 20 -24 20 -24 -42 24 c-51 30 -225 173 -273 225 -19
20 8 0 60 -45 88 -76 210 -168 210 -158 0 2 -31 27 -69 55 -78 58 -221 190
-221 203 0 22 43 6 97 -36z m2612 -139 c195 -83 469 -166 549 -166 46 0 46
-23 4 -152 -46 -140 -44 -139 -144 -113 -184 46 -334 144 -385 250 -18 37 -37
45 -47 20 -9 -25 -36 -18 -36 9 0 43 -10 56 -36 50 -19 -5 -26 -1 -34 21 -23
59 -25 135 -4 135 4 0 64 -24 133 -54z m4004 41 c3 -7 3 -24 1 -38 -13 -93
-15 -100 -32 -98 -45 4 -52 0 -52 -37 0 -26 -3 -33 -12 -27 -32 19 -55 13 -68
-18 -33 -78 -169 -179 -302 -223 -117 -40 -108 -46 -143 108 l-31 134 96 23
c118 27 316 94 435 147 103 47 101 46 108 29z m739 -69 l3 -46 -32 3 c-34 3
-34 3 -48 -60 -9 -39 -22 -54 -43 -48 -12 3 -23 -5 -32 -23 -48 -88 -239 -211
-404 -258 -128 -38 -132 -37 -140 27 -9 73 -25 117 -42 117 -19 0 -19 0 16 69
28 54 35 61 68 67 262 44 446 107 607 208 45 28 42 31 47 -56z m-5475 -32
c113 -57 240 -100 358 -121 50 -9 108 -20 130 -25 24 -6 44 -5 51 1 9 7 22 -8
47 -56 l36 -67 -15 -76 c-8 -42 -20 -80 -27 -84 -36 -23 -234 29 -361 95 -81
42 -192 136 -223 188 -12 20 -20 25 -29 18 -16 -13 -44 26 -44 61 0 34 -10 47
-40 51 -22 4 -25 9 -28 53 l-3 48 28 -20 c16 -11 70 -41 120 -66z m3877 -375
l220 -334 -22 -36 c-100 -161 -195 -414 -239 -639 -25 -129 -27 -153 -27 -417
0 -241 3 -295 21 -390 l21 -110 -40 -74 c-124 -235 -372 -433 -663 -530 -167
-55 -241 -66 -455 -66 -212 0 -319 16 -474 72 -280 101 -531 307 -651 533
l-34 67 21 69 c19 61 22 99 25 327 4 202 1 287 -12 390 -29 228 -99 463 -195
657 -46 94 -70 148 -70 160 0 5 97 155 215 334 l215 326 962 -2 962 -3 220
-334z m-3161 43 c72 -60 206 -105 367 -124 96 -12 143 -30 135 -53 -3 -6 -13
-61 -23 -122 l-19 -110 -38 3 c-48 5 -137 36 -189 66 -51 30 -134 117 -166
174 -14 25 -31 42 -41 42 -10 0 -23 9 -29 20 -6 11 -17 20 -25 20 -13 0 -18
16 -29 97 -3 26 15 21 57 -13z m3957 17 c0 -46 -14 -83 -34 -91 -12 -4 -28
-19 -35 -33 -7 -14 -19 -23 -26 -21 -7 3 -24 -15 -40 -42 -61 -105 -156 -181
-267 -215 -33 -11 -62 -18 -64 -17 -1 2 -7 46 -13 98 -6 52 -13 116 -17 141
l-6 46 72 7 c136 14 314 74 385 130 27 21 45 20 45 -3z m-5375 -71 c150 -61
317 -111 463 -141 105 -20 114 -24 128 -51 8 -16 31 -47 51 -69 l35 -39 -7
-85 c-7 -84 -7 -85 -33 -85 -36 0 -147 17 -202 32 -128 33 -376 188 -395 247
-5 17 -9 20 -15 11 -6 -9 -10 -6 -15 11 -7 21 -8 22 -21 5 -11 -16 -15 -14
-39 23 -15 22 -38 47 -51 56 -23 15 -26 15 -42 -5 -15 -19 -20 -20 -30 -7 -17
20 -36 121 -28 151 6 26 6 26 44 10 20 -9 91 -38 157 -64z m6902 22 c-6 -77
-29 -122 -58 -115 -11 3 -23 12 -26 20 -7 18 -36 -7 -64 -57 -21 -36 -59 -52
-59 -24 0 13 -2 13 -13 2 -8 -7 -19 -24 -26 -36 -19 -36 -165 -138 -275 -193
-56 -28 -90 -47 -76 -44 85 24 352 192 367 231 6 16 33 19 33 3 0 -27 -155
-141 -275 -201 -99 -50 -166 -68 -275 -73 l-95 -4 85 9 c47 4 96 13 110 19 24
11 24 11 -5 6 -16 -3 -64 -8 -105 -12 l-75 -5 -3 87 -2 87 40 44 c22 24 45 55
51 68 9 20 22 26 63 31 151 21 460 113 601 180 39 18 74 34 79 34 5 1 6 -25 3
-57z m-773 26 c7 -29 -4 -98 -15 -98 -5 0 -9 8 -10 18 0 11 -3 8 -8 -8 -5 -14
-16 -40 -25 -58 -20 -39 -13 -43 8 -4 13 23 15 24 16 7 0 -20 -17 -45 -30 -45
-4 0 -17 9 -30 20 -32 28 -44 25 -58 -12 -15 -41 -8 -48 12 -11 13 25 15 26
16 7 0 -31 -24 -48 -49 -34 -12 6 -21 17 -21 25 0 27 -39 10 -68 -31 -35 -49
-105 -110 -149 -132 -18 -8 -30 -19 -27 -24 3 -4 -3 -5 -12 -1 -11 4 -15 3
-11 -4 5 -7 -1 -9 -15 -5 -14 3 -19 1 -14 -6 5 -8 2 -10 -8 -6 -9 3 -16 1 -16
-6 0 -6 -4 -9 -9 -6 -4 3 -41 -1 -80 -10 -40 -8 -76 -12 -82 -9 -5 4 -9 46 -9
94 0 68 4 92 16 102 8 7 24 30 35 51 18 34 23 38 59 38 111 0 342 63 491 135
41 19 76 35 80 35 4 0 9 -10 13 -22z m1689 5 c-23 -64 -166 -159 -356 -239
-48 -21 -86 -42 -84 -48 2 -6 25 -14 51 -18 59 -8 65 -14 40 -37 -103 -101
-462 -306 -634 -362 -47 -16 -76 -28 -65 -29 17 0 17 -2 5 -10 -17 -11 -50
-13 -35 -2 6 4 11 14 13 22 2 8 9 22 17 30 41 47 85 174 85 246 0 26 6 47 18
57 9 9 71 32 137 52 235 72 529 195 720 303 50 28 91 51 92 52 1 0 -1 -8 -4
-17z m-8865 -36 c150 -95 385 -209 569 -278 122 -45 319 -102 336 -96 8 2 18
-27 30 -86 21 -104 52 -172 109 -233 l40 -44 -53 16 c-79 23 -171 51 -194 60
-11 4 -17 3 -12 -1 4 -5 55 -25 115 -46 59 -21 100 -38 91 -38 -8 -1 -60 14
-115 33 -105 35 -250 105 -381 182 -80 47 -283 191 -283 201 0 2 19 -10 43
-27 125 -95 440 -281 473 -280 5 0 -33 23 -84 50 -132 70 -207 116 -287 177
-140 106 -137 100 -58 111 33 5 48 12 48 22 0 9 -9 15 -22 14 -13 0 -21 1 -18
4 2 3 -64 38 -146 79 -153 76 -249 148 -249 186 0 22 3 22 48 -6z m1881 -70
c101 -34 255 -65 366 -73 l90 -7 33 -51 c33 -49 33 -52 26 -126 -3 -41 -12
-78 -18 -82 -36 -24 -199 8 -304 60 -67 33 -137 93 -173 151 -21 33 -30 40
-35 28 -3 -9 -12 -13 -20 -10 -8 3 -14 -1 -14 -11 0 -30 -21 -16 -39 27 -15
32 -20 38 -26 25 -4 -9 -13 -14 -21 -11 -8 3 -14 -1 -14 -8 -1 -24 -39 30 -50
69 -5 20 -10 53 -10 73 l0 35 66 -32 c37 -18 101 -44 143 -57z m4501 -277 c0
-33 -4 -42 -24 -49 -13 -5 -26 -17 -29 -25 -4 -9 -17 -16 -30 -16 -16 0 -34
-15 -59 -49 -44 -59 -135 -121 -212 -145 -31 -10 -59 -17 -61 -15 -2 2 -5 52
-7 110 l-3 106 91 12 c103 12 209 45 275 84 24 15 47 27 52 27 4 0 7 -18 7
-40z m-3830 -13 c85 -42 211 -77 279 -77 90 0 88 3 78 -113 -4 -55 -10 -103
-13 -106 -7 -8 -92 17 -151 44 -57 26 -132 90 -163 140 -15 25 -25 31 -43 28
-17 -3 -26 2 -37 21 -7 14 -19 26 -27 26 -9 0 -13 14 -13 41 0 22 3 39 8 37 4
-1 41 -20 82 -41z m4484 -64 c-11 -60 -54 -131 -54 -90 0 8 -6 20 -14 26 -11
9 -20 4 -46 -25 -22 -25 -35 -33 -42 -26 -14 14 -56 -5 -63 -29 -8 -24 -86
-94 -132 -117 -50 -26 -102 -39 -189 -46 l-71 -6 -13 45 c-16 58 -6 106 35
170 l33 52 118 6 c120 6 300 36 370 61 67 25 76 22 68 -21z m-5184 2 c19 -1
53 -5 75 -10 33 -7 37 -9 20 -17 -13 -5 -4 -6 25 -3 34 4 40 2 25 -5 -15 -7
-7 -8 30 -5 38 3 44 2 25 -5 -18 -7 -6 -8 45 -5 52 3 61 2 35 -4 -23 -6 6 -8
85 -6 89 2 103 1 55 -4 l-65 -7 81 -2 c47 -1 84 2 91 9 8 8 21 -3 47 -42 31
-47 36 -61 36 -114 0 -111 3 -108 -114 -103 -120 5 -194 29 -270 86 -28 22
-60 55 -71 76 -22 40 -23 40 -59 26 -22 -8 -27 -5 -45 24 -24 38 -49 42 -57 9
-4 -13 -11 -22 -18 -20 -18 5 -46 69 -46 106 0 28 3 32 18 25 9 -4 33 -8 52
-9z m5952 -21 c10 -22 9 -33 -12 -72 -14 -25 -38 -55 -53 -66 l-29 -21 -18 23
c-11 13 -24 20 -34 16 -9 -3 -16 -1 -16 5 0 23 -28 9 -60 -30 -33 -41 -33 -41
-45 -19 -12 22 -13 22 -23 4 -10 -16 -11 -17 -12 -2 0 33 -21 29 -63 -14 -52
-54 -216 -137 -341 -173 -48 -14 -92 -25 -97 -25 -5 0 -9 32 -9 71 0 70 1 73
40 115 22 24 45 55 51 68 10 21 19 24 107 29 142 9 387 55 545 103 34 11 16
-79 -25 -123 -12 -13 -17 -23 -11 -23 29 0 73 78 73 131 0 36 16 38 32 3z
m-1962 -153 l0 -170 -34 14 c-33 14 -34 14 -46 -16 -22 -51 -6 -118 36 -158
l36 -34 -6 -66 c-3 -36 -11 -101 -17 -143 -10 -70 -13 -77 -29 -68 -33 18 -66
12 -80 -14 -20 -38 -9 -140 18 -169 12 -13 22 -35 22 -49 0 -33 -28 -182 -41
-215 l-9 -25 -30 25 c-16 14 -39 29 -51 32 -21 7 -21 7 3 33 23 26 23 32 20
160 -3 125 -5 132 -24 132 -20 0 -20 3 -14 98 4 53 11 101 15 105 4 4 27 4 49
-2 l42 -9 -1 32 c0 17 -6 90 -13 161 -11 111 -10 138 2 183 15 52 15 52 55 52
l40 0 -7 74 c-6 70 -5 78 26 140 18 36 34 66 35 66 2 0 3 -76 3 -169z m-4615
115 c133 -35 387 -76 467 -76 40 0 45 -3 63 -36 10 -19 34 -48 52 -64 31 -28
33 -33 33 -100 0 -65 -1 -70 -24 -76 -70 -17 -365 108 -453 191 -50 48 -78 54
-87 19 -9 -34 -29 -30 -60 11 -40 52 -64 62 -83 35 l-15 -21 -25 23 c-32 29
-53 70 -53 101 0 31 10 40 35 32 11 -3 79 -21 150 -39z m1869 -31 c25 -89 27
-121 11 -167 -19 -56 -19 -58 9 -58 61 0 85 -12 97 -48 20 -60 -5 -237 -46
-336 -7 -17 -5 -18 21 -13 87 17 110 -22 120 -205 6 -116 5 -128 -10 -128 -9
0 -28 12 -41 26 l-24 26 -5 -34 c-3 -18 -8 -65 -11 -105 -6 -70 -5 -73 29
-125 40 -59 42 -77 21 -178 -14 -69 -14 -73 7 -122 19 -44 20 -54 9 -82 -26
-62 -24 -72 20 -138 23 -34 44 -65 46 -68 2 -2 15 8 29 23 14 15 32 27 41 27
9 0 51 -33 92 -72 l76 -73 42 -154 c23 -84 44 -155 46 -157 2 -3 67 22 143 55
96 41 143 57 154 51 19 -10 150 -233 150 -255 0 -33 -72 -235 -83 -235 -7 0
-29 11 -49 25 -20 14 -39 25 -42 25 -3 0 -2 -23 1 -52 5 -39 13 -57 32 -74 24
-21 25 -25 14 -55 -20 -51 -147 -269 -157 -269 -6 0 -23 12 -38 27 -48 46 -64
41 -78 -28 -12 -56 -12 -61 9 -82 11 -13 21 -28 21 -35 0 -13 -138 -172 -149
-172 -4 0 -13 11 -18 23 -12 26 -41 29 -68 7 -29 -24 -35 -46 -24 -80 8 -23 8
-38 1 -55 -13 -27 -159 -148 -171 -141 -4 3 -23 46 -41 96 -19 49 -38 90 -44
90 -5 0 -54 -12 -109 -26 -68 -18 -102 -23 -109 -16 -18 18 -27 93 -28 224 l0
126 34 29 c27 22 35 38 40 74 l5 46 -34 -3 -35 -2 0 51 c0 85 21 230 36 254 8
12 34 34 59 48 25 15 45 32 45 38 0 7 3 22 6 34 5 17 0 22 -24 28 -16 3 -38
15 -47 25 -15 17 -16 24 -1 97 18 83 57 231 74 275 10 24 94 98 112 98 8 0 40
83 40 101 0 5 -7 6 -15 3 -10 -4 -15 0 -15 11 0 14 -9 12 -57 -15 l-56 -32 6
124 c8 154 40 354 61 377 17 19 23 127 7 116 -5 -3 -13 4 -16 15 -5 16 -10 18
-20 10 -15 -12 -32 32 -60 150 -24 106 -20 153 16 195 28 31 31 41 26 81 -5
50 -14 65 -26 45 -7 -10 -11 -8 -16 10 l-8 23 -18 -23 -18 -22 -6 23 c-13 61
-25 159 -25 219 0 51 5 72 20 92 13 16 20 40 20 66 0 39 -2 41 -30 41 -26 0
-30 4 -36 38 -5 20 -8 87 -8 147 0 87 4 117 18 144 21 40 28 33 50 -44z m5336
-65 c0 -23 -213 -142 -322 -179 -98 -33 -67 -61 68 -61 102 0 83 -23 -86 -104
-140 -67 -316 -127 -473 -159 l-117 -25 55 60 c55 60 92 120 114 190 7 21 17
40 22 43 5 3 62 19 127 35 142 35 282 81 462 154 147 60 150 60 150 46z
m-7838 -94 c171 -68 340 -121 486 -152 47 -10 82 -22 82 -29 0 -36 75 -157
130 -209 l60 -57 -48 6 c-100 14 -279 58 -390 96 -102 36 -303 127 -325 149
-5 4 30 9 78 12 47 2 90 9 96 15 13 13 -5 63 -23 63 -47 1 -338 149 -338 172
0 6 6 8 13 5 6 -3 87 -35 179 -71z m5724 -22 c-4 -14 -16 -26 -31 -30 -16 -4
-25 -14 -27 -32 -2 -19 -10 -28 -26 -30 -12 -2 -42 -25 -66 -50 -50 -53 -136
-108 -182 -118 l-30 -6 3 119 c3 65 6 123 8 129 2 6 33 14 69 18 76 8 171 36
236 70 l45 24 3 -35 c2 -20 1 -47 -2 -59z m-3711 42 c75 -37 151 -56 219 -56
68 0 73 -9 80 -147 l7 -123 -24 0 c-45 0 -161 67 -216 125 -29 30 -61 55 -72
55 -13 0 -21 9 -25 29 -4 17 -16 33 -30 40 -21 9 -24 17 -24 61 0 27 3 50 7
50 4 0 39 -15 78 -34z m-574 -116 c77 -18 79 -19 29 -15 -55 4 -55 4 -15 -7
22 -6 81 -11 131 -12 51 0 87 -4 80 -8 -6 -4 33 -8 86 -8 l98 0 20 -39 c11
-22 29 -46 40 -54 17 -12 21 -23 18 -58 l-3 -44 -71 -3 c-43 -2 -95 3 -134 13
-70 18 -169 65 -189 89 -10 12 -17 13 -26 6 -9 -8 -15 -8 -20 0 -3 6 -11 8
-16 4 -6 -3 -18 1 -28 10 -13 12 -28 15 -50 11 -30 -5 -33 -2 -51 37 -11 24
-20 58 -20 76 0 28 3 32 19 27 10 -3 56 -14 102 -25z m4885 15 c7 -16 -12 -80
-34 -113 -14 -21 -16 -22 -34 -6 -18 17 -20 16 -52 -15 -34 -33 -56 -34 -56
-5 0 11 -13 5 -40 -19 -51 -43 -179 -87 -277 -94 l-73 -6 0 43 c0 33 7 50 31
78 17 19 35 47 40 62 10 27 11 27 157 39 81 6 185 20 232 30 47 10 89 19 93
20 4 0 10 -6 13 -14z m674 -14 c0 -24 -22 -63 -56 -101 -29 -32 -42 -39 -63
-36 -14 2 -27 5 -28 6 -9 8 -30 4 -43 -6 -25 -21 -90 -45 -90 -34 0 5 -7 7
-15 4 -8 -4 -15 -1 -15 5 0 6 -24 -7 -52 -29 -81 -61 -283 -130 -383 -130 -23
0 -25 4 -25 40 0 35 4 42 39 64 22 14 54 41 73 60 32 33 39 35 133 45 134 15
483 96 504 117 8 7 21 4 21 -5z m-6238 -47 c158 -47 388 -94 459 -94 43 0 60
-5 74 -20 9 -10 42 -36 71 -56 51 -35 54 -40 54 -80 0 -41 -1 -42 -39 -49 -99
-17 -347 61 -426 135 -30 27 -64 35 -76 18 -8 -12 -60 12 -77 34 -12 17 -44
20 -58 5 -24 -24 -93 28 -120 90 -28 65 -25 65 138 17z m1413 -229 c42 -8 89
-15 104 -15 15 0 35 -8 43 -17 13 -16 43 -191 34 -200 -2 -3 -29 2 -59 10 -89
23 -137 56 -182 122 -23 33 -48 60 -56 61 -33 2 -68 28 -74 55 -10 45 1 50 59
23 30 -14 89 -31 131 -39z m3482 19 c-8 -27 -15 -34 -29 -31 -10 3 -18 1 -18
-4 0 -5 -7 -9 -15 -9 -8 0 -15 -4 -15 -10 0 -5 -6 -7 -12 -5 -8 2 -22 -14 -34
-38 -11 -23 -39 -56 -62 -73 -39 -30 -128 -71 -136 -63 -7 7 16 183 26 195 4
6 39 14 76 17 37 3 99 16 137 30 96 33 95 34 82 -9z m513 -52 c0 -24 -31 -106
-46 -123 -23 -25 -44 -24 -44 3 0 21 -2 20 -33 -10 -37 -36 -47 -39 -47 -17 0
27 -26 27 -64 1 -63 -42 -140 -66 -216 -66 -62 0 -70 2 -70 19 0 10 16 39 36
65 19 25 42 62 50 81 l14 35 133 1 c72 0 155 4 182 9 71 11 105 11 105 2z
m-4528 -23 c124 -11 232 -8 270 6 13 5 24 -7 47 -52 16 -32 39 -71 50 -88 12
-16 21 -38 21 -49 0 -17 -7 -18 -92 -14 -99 5 -177 29 -242 73 -19 13 -38 20
-41 15 -3 -5 -12 -7 -20 -3 -9 3 -15 -1 -15 -8 -1 -9 -8 -5 -19 9 -23 26 -31
28 -31 5 0 -15 -2 -14 -15 3 -14 18 -14 18 -15 0 0 -31 -26 -1 -44 51 -20 59
-20 77 -1 69 8 -3 74 -10 147 -17z m5883 -29 c-22 -24 -135 -71 -240 -100
-151 -41 -154 -47 -37 -75 39 -9 72 -21 72 -26 0 -12 -183 -99 -300 -142 -52
-20 -141 -47 -198 -62 -111 -28 -311 -59 -321 -50 -3 3 4 31 14 62 18 50 26
61 70 86 65 37 129 99 172 165 19 29 40 55 46 56 7 2 81 9 166 15 162 13 335
39 461 70 41 10 84 19 94 20 18 1 18 0 1 -19z m-6513 -10 c2 -5 68 -12 148
-15 80 -3 168 -8 196 -11 50 -5 52 -6 59 -40 9 -48 77 -121 126 -136 35 -10
39 -14 39 -45 l0 -33 -103 0 c-141 0 -212 24 -283 95 -44 44 -55 50 -75 43
-18 -7 -27 -4 -39 12 l-16 21 -27 -21 c-33 -26 -43 -20 -82 46 -36 62 -25 89
37 93 9 0 18 -3 20 -9z m5658 4 c0 -4 -14 -30 -30 -60 -22 -37 -36 -52 -50
-51 -11 1 -20 5 -20 10 0 5 -6 4 -14 -2 -10 -9 -16 -9 -21 -1 -5 8 -13 6 -26
-6 -11 -10 -27 -14 -41 -11 -19 5 -30 -1 -52 -30 -17 -21 -55 -48 -95 -67 -55
-26 -81 -31 -153 -34 -87 -4 -88 -4 -88 20 0 18 11 28 50 46 57 26 106 84 116
138 l6 34 87 1 c47 1 124 4 171 8 119 11 160 12 160 5z m-6431 -30 c162 -36
355 -63 507 -71 l131 -6 23 -44 c26 -50 105 -125 160 -153 35 -18 90 -101 90
-136 0 -18 -40 -18 -160 1 -201 33 -388 92 -580 182 l-95 45 75 21 c85 23 90
25 71 36 -7 5 -12 12 -10 17 1 5 -6 11 -17 12 -76 14 -360 120 -324 121 8 1
66 -11 129 -25z m5324 -131 c-9 -25 -34 -53 -43 -48 -4 3 -10 -2 -14 -10 -3
-8 -14 -15 -24 -15 -11 0 -31 -19 -50 -49 -32 -49 -111 -111 -141 -111 -14 0
-14 -1 -1 -10 13 -8 12 -10 -2 -10 -22 0 -22 4 1 98 10 43 22 89 25 103 5 24
11 27 73 34 38 4 86 13 108 20 59 19 76 18 68 -2z m-3348 -17 c39 -8 87 -16
108 -16 44 0 41 5 71 -128 l22 -101 -25 6 c-49 11 -97 42 -139 87 -23 25 -42
50 -42 56 0 5 -20 19 -45 31 -25 12 -45 25 -45 31 0 5 -5 6 -10 3 -8 -5 -30
32 -30 52 0 7 46 0 135 -21z m-127 -113 c44 -77 43 -88 -18 -103 -71 -17 -158
8 -217 63 -13 11 -23 15 -23 9 0 -9 -7 -8 -24 3 -23 15 -23 15 -19 -10 6 -30
0 -31 -38 -4 -16 11 -40 22 -54 23 -23 2 -54 30 -55 49 0 4 60 7 133 8 72 0
152 4 177 8 96 18 102 16 138 -46z m3900 41 c10 -3 8 -11 -8 -34 -16 -22 -25
-28 -34 -21 -8 7 -24 3 -52 -14 -51 -32 -66 -32 -58 0 3 14 3 25 0 25 -4 0
-37 -18 -73 -40 -71 -42 -108 -54 -164 -48 -47 4 -49 33 -7 95 l33 49 175 -3
c96 -3 181 -6 188 -9z m482 -49 c0 -3 -9 -23 -20 -45 -11 -22 -20 -50 -20 -62
-1 -22 -1 -22 -14 -5 -10 13 -16 15 -21 7 -6 -9 -10 -9 -16 1 -6 10 -13 7 -29
-14 -18 -23 -28 -27 -58 -23 -26 2 -46 -3 -65 -17 -45 -31 -144 -58 -238 -64
-79 -5 -86 -4 -90 13 -4 14 18 41 78 98 l83 79 158 13 c86 8 164 16 172 18 24
6 80 7 80 1z m-5174 -30 c65 -3 164 -10 218 -16 l100 -12 47 -51 c26 -28 59
-58 73 -65 19 -11 26 -22 26 -43 l0 -30 -92 7 c-104 8 -198 28 -241 53 -16 9
-39 22 -50 29 -14 8 -27 9 -38 2 -14 -7 -26 -2 -53 21 -44 39 -45 40 -60 13
-11 -21 -13 -22 -34 -7 -27 18 -65 90 -57 105 4 5 14 7 24 4 9 -3 71 -7 137
-10z m4206 -121 c51 -9 145 -19 208 -23 107 -6 115 -8 118 -27 4 -27 -26 -54
-38 -35 -6 11 -15 10 -43 -4 -20 -9 -41 -23 -48 -31 -18 -22 -32 -16 -25 11 5
20 3 24 -11 22 -10 -2 -28 -8 -40 -15 -12 -7 -58 -17 -101 -23 -65 -10 -92 -9
-162 5 -121 25 -130 32 -114 92 4 17 18 23 67 31 90 14 89 14 189 -3z m-3126
-10 c48 -6 52 -9 62 -40 8 -27 7 -34 -4 -34 -7 0 -46 -11 -86 -24 -130 -44
-256 -43 -342 1 l-29 15 7 -29 6 -28 -15 28 c-20 35 -38 36 -25 2 l10 -26 -33
25 c-35 26 -65 35 -84 23 -11 -7 -43 27 -43 45 0 5 25 8 55 8 75 0 236 18 310
35 56 13 84 13 211 -1z m4684 -43 c0 -23 -79 -49 -234 -76 -49 -8 -91 -17 -94
-19 -10 -11 11 -24 64 -41 47 -15 54 -20 42 -31 -35 -36 -329 -84 -509 -84
l-49 0 29 58 c16 31 32 73 36 92 11 58 49 67 310 74 121 3 256 12 300 19 104
18 105 18 105 8z m-6300 -42 c41 -5 171 -9 288 -8 180 0 217 -2 238 -16 13 -8
24 -23 24 -33 0 -9 15 -47 33 -84 l33 -68 -115 0 c-151 0 -451 46 -451 69 0 4
25 15 55 25 30 9 55 19 55 22 0 3 -7 16 -16 29 -13 20 -25 25 -58 25 -45 0
-197 32 -236 49 -27 12 -8 11 150 -10z m5509 -25 c8 -7 -22 -71 -46 -96 -31
-33 -53 -36 -53 -9 0 21 -23 22 -42 3 -15 -15 -38 -16 -38 -2 0 16 -27 12 -62
-10 -93 -57 -281 -80 -329 -41 -13 11 -22 21 -19 23 3 2 39 20 80 40 41 20 90
52 108 71 l33 34 182 -5 c100 -2 184 -6 186 -8z m-4467 -39 c21 -20 63 -48 93
-62 30 -15 55 -31 55 -35 0 -5 -15 -17 -32 -28 -58 -35 -192 -20 -291 32 -49
26 -88 32 -99 15 -5 -8 -13 -6 -29 8 -20 18 -22 18 -16 2 5 -15 3 -16 -12 -7
-16 8 -18 7 -14 -9 8 -32 -33 -14 -72 32 -31 36 -44 75 -30 88 2 3 95 3 206 2
l202 -3 39 -35z m668 0 c18 -55 18 -130 0 -131 -8 0 -35 -11 -60 -22 -52 -25
-126 -28 -174 -8 -37 15 -116 19 -116 6 0 -5 -7 -7 -15 -4 -8 4 -15 1 -15 -5
0 -6 -13 -2 -30 11 -28 20 -29 23 -13 40 9 10 22 18 28 18 29 0 194 53 279 90
50 22 94 39 98 40 3 0 12 -16 18 -35z m2857 -19 c46 -19 124 -47 175 -60 50
-14 95 -29 100 -34 4 -4 -6 -19 -23 -32 -29 -20 -33 -21 -44 -7 -16 22 -80 23
-149 2 -62 -18 -121 -16 -170 6 -30 14 -35 57 -11 99 8 14 14 36 15 49 0 15 5
21 13 18 6 -3 49 -21 94 -41z m-3314 -157 c12 -6 31 -20 42 -30 11 -10 40 -29
65 -42 24 -12 45 -28 47 -34 6 -16 -91 -53 -140 -53 -24 0 -69 5 -98 10 -102
20 -119 21 -119 5 0 -20 -9 -19 -33 3 -15 13 -21 14 -24 4 -4 -10 -8 -10 -21
0 -12 10 -16 10 -19 1 -7 -20 -19 -16 -58 18 -38 34 -43 52 -20 75 11 11 29
13 77 9 48 -4 88 0 163 18 124 30 112 29 138 16z m3765 -14 c61 -14 140 -25
176 -25 36 0 66 -2 66 -5 0 -18 -43 -86 -59 -95 -28 -15 -51 -12 -51 5 0 8 -4
15 -9 15 -5 0 -14 -7 -21 -15 -17 -20 -60 -20 -60 1 0 12 -5 14 -17 9 -10 -5
-52 -14 -93 -22 -83 -15 -173 -6 -217 22 -28 19 -23 30 20 49 18 7 52 30 75
50 24 20 52 36 62 36 9 0 67 -11 128 -25z m-685 -108 c17 -116 23 -287 9 -287
-4 0 -24 11 -44 25 -20 14 -44 22 -52 19 -13 -5 -13 0 1 38 10 23 27 59 40 78
27 40 29 79 8 120 -19 37 -28 38 -44 3 -20 -45 -55 -93 -68 -93 -6 0 4 23 22
52 19 29 47 76 62 105 16 29 33 53 39 53 6 0 18 -50 27 -113z m1587 73 c0 -10
-88 -28 -187 -40 -118 -13 -184 -52 -114 -66 39 -8 48 -32 16 -39 -14 -3 -36
-7 -50 -10 -44 -9 -326 -26 -336 -20 -5 4 6 25 25 47 19 22 43 60 53 84 10 24
25 45 33 46 35 7 560 5 560 -2z m-4215 -106 l-10 -106 -50 -26 c-105 -53 -218
-66 -290 -33 -46 20 -65 18 -65 -10 0 -24 -21 -24 -52 0 -24 19 -42 22 -63 10
-13 -8 -68 15 -85 36 -13 15 -11 20 13 41 16 13 38 24 51 24 12 0 26 3 30 7 4
4 44 7 89 8 79 0 87 3 212 61 131 62 174 79 210 87 11 3 20 5 20 6 0 0 -4 -47
-10 -105z m-1160 81 c110 0 212 4 226 8 22 6 27 2 37 -26 6 -18 30 -56 52 -84
l40 -53 -100 0 c-88 0 -318 25 -329 35 -3 4 11 10 68 31 12 4 11 8 -5 24 -14
14 -44 22 -109 30 -85 10 -204 36 -215 46 -2 3 27 1 65 -3 39 -4 160 -8 270
-8z m4080 -52 c140 -67 140 -67 254 -74 83 -6 118 -13 132 -25 10 -9 23 -13
31 -8 7 4 -9 -15 -37 -43 -40 -40 -53 -48 -66 -40 -12 8 -24 5 -44 -11 -35
-28 -65 -29 -65 -2 0 24 -20 26 -62 4 -44 -23 -185 -14 -249 15 l-46 21 -6 77
c-4 43 -10 95 -13 116 -9 52 4 50 171 -30z m778 -192 c29 -1 46 -5 42 -11 -3
-5 -16 -10 -27 -10 -12 0 -50 -5 -85 -11 -74 -13 -81 -29 -26 -58 l37 -19 -62
-7 c-64 -7 -261 2 -280 14 -14 9 50 97 88 119 27 17 34 17 147 0 65 -9 140
-17 166 -17z m-1186 -61 c11 0 16 -17 28 -96 5 -34 16 -49 66 -93 33 -29 68
-69 78 -89 28 -55 70 -199 64 -221 -2 -10 0 -22 6 -25 14 -9 14 -46 1 -46 -6
0 -22 7 -36 16 -13 9 -27 14 -30 11 -4 -3 -9 -35 -11 -70 l-5 -63 60 -27 c34
-16 64 -32 67 -37 9 -15 29 -319 21 -327 -4 -4 -13 -1 -19 8 -7 9 -20 16 -29
16 -16 0 -18 -10 -18 -72 0 -71 1 -73 35 -100 33 -25 36 -30 31 -68 -3 -23
-10 -93 -17 -155 -12 -117 -26 -150 -58 -136 -72 30 -159 59 -171 57 -8 -2
-32 -30 -54 -63 -21 -33 -44 -60 -52 -60 -7 0 -42 25 -78 56 -57 48 -66 60
-66 89 0 18 -8 43 -19 56 -17 21 -21 22 -50 9 -32 -13 -33 -13 -104 56 -39 38
-56 52 -37 32 46 -52 34 -48 -15 3 -22 23 -34 39 -27 35 14 -8 14 0 3 29 -6
13 -3 29 6 46 14 24 13 29 -17 82 l-31 56 -28 -31 -28 -31 -26 35 c-15 19 -49
74 -77 123 -41 70 -50 93 -42 109 6 14 4 43 -5 84 l-15 64 -23 -22 -24 -22
-16 37 c-33 81 -84 256 -78 273 11 31 117 155 157 184 21 15 48 28 60 28 20 0
147 -103 174 -142 7 -10 17 -18 22 -18 14 0 72 121 115 240 38 103 40 106 124
187 l86 81 45 -44 c25 -24 51 -44 57 -44z m-3118 23 c28 -31 51 -60 51 -64 0
-10 -96 -19 -214 -19 -104 0 -107 1 -87 18 20 16 20 18 3 40 -15 19 -31 25
-83 30 l-64 6 138 17 c75 10 143 20 150 22 36 15 57 5 106 -50z m-2706 27 c38
-55 319 -348 452 -472 301 -282 769 -648 1018 -797 174 -104 203 -140 161
-200 -35 -50 -61 -53 -393 -46 -168 3 -344 8 -390 11 -51 3 -82 2 -80 -4 17
-44 679 -469 744 -477 30 -4 289 -134 298 -150 4 -8 14 -12 21 -9 8 3 46 -9
85 -26 120 -52 390 -155 511 -195 63 -21 119 -41 123 -45 4 -3 -11 -15 -33
-25 -23 -10 -50 -30 -60 -43 l-19 -24 -68 23 c-598 197 -1254 536 -1716 888
-56 42 -116 85 -134 96 -42 25 -47 49 -16 85 l25 30 419 0 c339 0 419 3 419
13 0 7 -46 44 -102 83 -384 260 -790 605 -1073 910 -132 142 -242 282 -251
320 -6 22 20 74 37 74 4 0 14 -9 22 -20z m9387 -20 l22 -31 -44 -70 c-23 -39
-54 -89 -67 -111 -13 -23 -121 -138 -240 -257 -301 -302 -565 -524 -898 -754
-89 -62 -161 -116 -159 -122 2 -6 154 -11 424 -13 l421 -2 20 -26 c24 -31 26
-49 9 -64 -48 -40 -295 -218 -403 -290 -373 -250 -855 -490 -1315 -658 -230
-83 -304 -105 -309 -89 -2 6 -19 26 -38 44 -18 17 -30 34 -26 36 5 2 40 14 78
27 248 80 628 236 850 348 72 37 138 67 147 68 65 5 738 439 738 475 0 6 -31
8 -82 5 -46 -3 -222 -8 -393 -11 -284 -5 -313 -4 -345 12 -19 10 -41 30 -50
45 -25 45 5 86 114 154 531 333 1057 780 1422 1208 49 57 92 105 96 105 4 1
16 -13 28 -29z m-6080 -80 l0 -69 -35 -7 c-35 -6 -97 -2 -147 11 -21 6 -28 4
-28 -8 0 -24 -27 -28 -53 -7 -15 12 -32 17 -46 13 -31 -8 -64 23 -50 48 7 14
21 19 48 19 42 0 219 42 248 59 10 6 28 11 41 11 21 0 22 -4 22 -70z m2875 29
c38 -10 99 -22 135 -25 59 -6 79 -16 80 -36 0 -5 -6 -8 -14 -8 -7 0 -19 -7
-26 -15 -7 -8 -23 -15 -35 -15 -12 0 -28 -7 -35 -15 -16 -20 -57 -19 -68 1 -7
13 -13 14 -31 5 -12 -7 -34 -11 -48 -9 -22 2 -30 12 -44 53 -24 68 -24 99 -1
90 9 -3 48 -15 87 -26z m-3175 -184 c27 -14 50 -16 110 -12 67 5 72 4 50 -8
-48 -25 -148 -45 -230 -45 -82 0 -83 0 -65 20 15 17 16 20 3 20 -9 0 -15 8
-14 18 0 10 -5 16 -14 14 -8 -2 -46 -5 -85 -8 l-70 -4 60 15 c100 25 155 46
155 58 0 6 15 -3 33 -20 17 -17 48 -39 67 -48z m3587 48 c73 -15 133 -31 133
-35 0 -12 -150 -10 -190 2 -23 7 -36 7 -38 0 -2 -5 -10 -10 -18 -10 -18 0 -18
-14 1 -30 8 -7 12 -16 9 -21 -9 -15 -131 -10 -202 8 l-67 18 55 5 c63 7 111
29 137 65 10 13 25 25 33 25 8 0 75 -12 147 -27z m-6353 -270 c55 -62 345
-328 471 -433 143 -119 316 -251 467 -356 l121 -84 -408 0 -408 0 -120 98
c-66 53 -174 144 -239 200 -96 84 -118 109 -118 130 1 21 28 643 30 661 0 4
136 -140 204 -216z m9070 0 c11 -328 19 -443 27 -437 5 3 9 -6 9 -19 0 -27
-114 -132 -335 -310 l-119 -97 -404 0 -404 0 141 100 c345 245 739 588 971
844 52 58 98 105 101 105 3 1 9 -83 13 -186z m-2724 52 c0 -26 -67 -301 -91
-373 l-31 -94 -35 34 c-19 18 -76 77 -125 131 -69 74 -92 107 -98 135 l-6 37
50 0 c69 0 141 30 196 81 34 32 55 44 85 47 22 2 43 4 48 5 4 1 7 0 7 -3z
m-3686 -62 c60 -55 118 -76 219 -81 72 -4 85 -7 68 -16 -11 -6 -84 -80 -162
-165 l-143 -154 -29 84 c-26 79 -87 332 -87 365 0 29 89 6 134 -33z m1971 -92
c3 -5 1 -12 -5 -16 -16 -10 -12 -41 17 -137 31 -104 23 -132 -22 -74 -32 42
-38 44 -58 12 -17 -25 -19 -22 71 -144 l24 -34 27 26 28 26 11 -25 c9 -20 8
-32 -5 -59 -15 -32 -18 -33 -47 -25 -17 5 -32 9 -33 9 -2 0 -3 -16 -3 -35 0
-30 6 -39 40 -61 47 -31 53 -28 72 39 l14 47 28 -52 28 -53 -26 -46 -27 -47
-44 14 c-44 13 -45 12 -45 -9 0 -12 52 -348 115 -747 63 -398 111 -728 107
-732 -4 -3 -97 -10 -208 -13 l-201 -8 -6 264 c-4 145 -7 411 -7 590 l0 325 30
29 c28 27 30 33 30 108 l0 79 -35 -26 -35 -27 0 70 c0 39 4 71 9 71 5 0 27
-20 49 -45 22 -25 44 -45 49 -45 5 0 25 17 45 38 l36 37 -17 54 c-9 30 -21 56
-27 58 -6 2 -19 -15 -29 -37 l-18 -41 -54 53 c-60 59 -67 76 -23 53 41 -21 43
-20 70 29 21 40 22 48 12 83 -7 21 -17 45 -22 53 -9 13 -12 13 -25 -4 -8 -10
-16 -24 -19 -30 -2 -6 -16 3 -30 19 -38 44 -33 79 19 157 47 70 52 87 35 118
-8 15 -4 27 22 57 52 60 71 73 83 54z m-335 -32 c0 -6 11 -25 24 -42 22 -29
23 -36 14 -72 -10 -39 -9 -42 36 -106 48 -69 57 -107 31 -129 -13 -11 -20 -9
-38 9 -13 11 -26 21 -28 21 -3 0 -16 -22 -29 -50 -23 -48 -23 -50 -6 -94 10
-25 21 -48 25 -50 4 -3 24 9 44 25 34 28 37 29 37 10 0 -12 -6 -21 -13 -21 -7
0 -30 -21 -52 -46 l-38 -47 -23 29 -23 28 -20 -48 c-27 -62 -27 -69 10 -123
l31 -45 32 39 c39 47 76 83 87 83 5 0 9 -29 9 -65 0 -36 -4 -65 -9 -65 -4 0
-20 9 -34 20 l-26 21 -5 -23 c-3 -13 -8 -48 -11 -79 -6 -55 -5 -57 30 -87 20
-18 41 -32 47 -32 8 0 9 -162 6 -585 l-5 -585 21 -2 c12 -1 -24 -5 -79 -9 -88
-6 366 1 535 8 66 2 285 25 417 43 40 5 79 7 88 4 8 -3 101 6 205 21 183 26
192 27 210 10 25 -23 27 -72 3 -79 -10 -3 -101 -19 -203 -36 -862 -141 -1482
-140 -2360 6 -118 20 -217 38 -219 40 -3 2 6 15 19 29 28 30 78 32 180 10 76
-17 207 -20 212 -5 2 7 79 2 228 -14 124 -14 304 -27 400 -30 170 -4 172 -4
42 4 -74 4 -135 10 -138 13 -2 2 41 289 96 638 133 838 134 848 129 854 -3 2
-19 1 -36 -4 -27 -8 -31 -6 -48 25 -10 19 -21 34 -25 34 -4 0 -19 -16 -33 -37
-25 -35 -25 -38 -10 -72 8 -20 19 -48 25 -63 11 -31 18 -34 36 -16 25 25 24 2
-4 -131 -5 -22 -8 -23 -56 -17 l-50 7 6 -27 c14 -54 35 -94 50 -94 21 0 20
-18 -4 -142 -11 -57 -20 -104 -20 -105 0 -7 -62 -2 -86 7 -31 12 -47 3 -21
-11 11 -7 17 -22 17 -49 0 -33 5 -41 36 -60 27 -17 34 -28 30 -44 -2 -11 -13
-72 -22 -134 l-18 -113 -56 6 -55 6 -13 -46 c-7 -26 -10 -50 -7 -55 2 -4 25
-11 50 -15 27 -4 49 -13 52 -21 3 -9 -2 -71 -12 -140 l-18 -124 -64 0 c-56 0
-63 -2 -63 -20 0 -12 -7 -20 -17 -20 -21 0 -277 32 -281 35 -1 1 72 263 162
583 l164 582 50 62 c158 201 303 463 390 708 17 47 33 93 37 103 8 19 25 23
25 6z m-1365 -195 c-8 -60 -19 -161 -23 -226 l-9 -116 -42 -51 -43 -51 -33 20
-33 21 -26 -24 c-23 -21 -24 -26 -11 -37 8 -7 15 -23 15 -35 0 -13 4 -25 9
-27 7 -2 -118 -169 -159 -212 -4 -4 -29 4 -55 19 l-47 28 -21 -22 c-20 -20
-21 -23 -5 -32 9 -5 15 -16 12 -24 -3 -8 3 -26 15 -41 11 -14 18 -31 14 -38
-4 -6 -43 -56 -87 -111 -44 -55 -81 -102 -82 -104 -2 -2 -19 8 -38 23 -43 32
-46 32 -46 1 0 -19 -5 -25 -21 -25 -11 0 -17 -4 -14 -10 4 -6 -5 -10 -19 -10
-36 0 -32 -13 14 -45 23 -16 37 -32 33 -39 -9 -14 -144 -176 -148 -176 -1 0
-19 7 -38 15 -50 21 -60 19 -52 -6 7 -20 5 -21 -24 -16 -41 9 -32 -7 20 -33
21 -11 39 -23 39 -26 0 -3 -9 -19 -21 -35 -13 -19 -16 -29 -8 -29 7 0 10 -2 7
-5 -6 -6 -299 109 -359 141 l-37 19 665 718 c366 395 667 716 669 714 2 -2 -3
-53 -11 -113z m3537 -455 c229 -244 502 -535 607 -646 l190 -201 -107 -47
c-59 -26 -141 -60 -182 -77 -68 -27 -75 -28 -86 -13 -7 10 -28 34 -46 54 -19
20 -64 73 -101 117 l-67 82 43 35 42 36 -29 1 c-21 0 -27 4 -22 15 4 10 -1 15
-14 15 -15 0 -20 7 -20 26 l0 26 -38 -31 -39 -30 -79 96 c-113 139 -107 127
-84 156 11 14 20 34 20 44 0 10 5 24 10 29 7 7 4 16 -10 29 -20 18 -22 18 -66
-3 -25 -12 -49 -20 -53 -17 -21 12 -171 205 -160 205 7 0 9 10 6 25 -3 18 1
29 15 36 19 10 18 12 -8 36 -27 25 -29 25 -57 9 -16 -9 -32 -16 -37 -16 -4 0
-26 24 -48 53 l-39 52 -7 170 c-4 94 -9 188 -12 210 l-5 40 33 -36 c18 -19
221 -235 450 -480z m-6752 323 c0 -13 420 -375 508 -437 1 -1 -3 -14 -9 -29
-17 -37 3 -103 37 -118 19 -9 24 -17 20 -32 -3 -12 -6 -27 -6 -34 0 -23 -367
284 -541 453 -118 114 -134 159 -68 192 27 14 59 17 59 5z m5297 -480 c45 -52
45 -54 205 -593 l159 -540 -33 -42 c-18 -23 -36 -43 -40 -45 -4 -2 -4 -10 -1
-18 3 -8 1 -14 -3 -14 -5 0 -78 -7 -163 -15 -84 -9 -156 -14 -158 -11 -9 9
-46 303 -40 319 3 8 25 17 52 22 l47 7 -7 46 c-4 26 -9 51 -12 56 -3 4 -29 5
-58 1 l-52 -6 -21 124 c-12 68 -22 128 -22 134 0 6 16 20 35 32 26 15 35 27
35 46 0 14 7 40 16 57 l16 31 -29 -8 c-15 -5 -44 -9 -63 -9 l-34 -1 -22 115
c-28 144 -28 147 -4 155 17 5 20 15 20 66 l0 59 -39 0 -38 0 -12 69 c-16 97
-16 96 34 66 25 -14 49 -24 53 -21 5 3 15 30 22 60 l13 55 50 -72 c27 -40 69
-96 94 -125z m2183 149 l345 -6 -130 -70 c-132 -70 -428 -210 -499 -236 l-39
-14 -66 72 c-36 39 -108 117 -160 173 l-95 102 150 -7 c82 -4 304 -10 494 -14z
m-4906 -13 c-62 -71 -290 -314 -297 -317 -16 -6 -336 142 -545 253 l-134 71
479 5 c263 3 487 6 497 8 19 2 19 1 0 -20z m378 -673 c-228 -400 -237 -415
-266 -415 -16 0 -38 -8 -48 -17 -19 -17 -26 -15 -163 31 l-143 48 422 516 421
516 7 -132 6 -132 -236 -415z m3734 170 c208 -258 387 -479 396 -490 17 -21
15 -22 -150 -78 -91 -30 -172 -53 -179 -49 -10 6 -454 688 -484 744 -9 16 -4
95 17 307 3 29 9 49 13 45 5 -5 179 -220 387 -479z m-4848 336 c75 -37 196
-94 267 -126 72 -32 132 -59 134 -61 6 -5 -414 -454 -425 -454 -6 0 -61 24
-122 54 l-110 55 4 38 c4 41 24 334 24 358 0 8 14 22 30 30 57 29 86 106 60
156 -6 10 -8 19 -5 19 3 0 67 -31 143 -69z m5877 -71 c11 -12 32 -28 46 -36
29 -14 29 -15 45 -306 l7 -118 -97 -46 c-53 -25 -101 -44 -106 -42 -13 4 -410
431 -406 436 3 2 67 32 143 66 76 34 183 85 238 113 l100 51 5 -48 c3 -28 14
-58 25 -70z m-6226 -30 l96 0 -12 -196 c-6 -108 -13 -198 -16 -200 -13 -13
-533 307 -627 387 l-25 21 244 -6 c134 -3 287 -6 340 -6z m6991 -44 c-137 -99
-556 -356 -581 -356 -3 0 -9 45 -13 100 -3 55 -9 145 -12 200 l-7 99 124 4
c68 1 223 4 344 5 l219 2 -74 -54z m-2746 -250 c53 -42 102 -76 111 -76 8 0
17 -10 20 -22 3 -13 23 -99 45 -191 22 -93 40 -187 40 -210 0 -49 -29 -103
-62 -116 -40 -16 -161 -52 -163 -49 -2 2 -62 201 -134 443 -73 242 -135 449
-138 460 -3 11 37 -21 90 -72 53 -50 139 -125 191 -167z m-1899 -237 c-69
-244 -128 -452 -131 -462 -6 -18 -7 -18 -27 0 -32 28 -66 48 -119 67 -25 10
-58 31 -73 46 -47 49 -44 84 24 296 l62 189 89 64 c89 64 281 233 289 255 3 7
5 8 8 0 2 -5 -53 -210 -122 -455z m-608 281 c8 0 13 -6 10 -12 -2 -7 -34 -96
-71 -197 -37 -101 -76 -197 -87 -212 -29 -41 -102 -85 -191 -115 -43 -14 -81
-24 -84 -22 -2 3 85 166 193 364 l198 359 9 -82 c6 -64 12 -83 23 -83z m249
53 c27 -39 54 -112 48 -128 -3 -7 -19 -19 -35 -25 -26 -11 -49 -37 -49 -54 0
-2 12 -6 28 -8 l27 -3 -44 -41 c-42 -39 -43 -42 -23 -48 28 -9 28 -20 0 -48
-13 -13 -22 -26 -21 -29 1 -4 -5 -6 -15 -5 -25 2 -21 -27 4 -34 18 -4 20 -9
13 -28 -7 -17 -14 -22 -29 -17 -27 9 -41 -42 -16 -60 14 -10 15 -24 10 -82
-10 -107 19 -148 137 -197 36 -15 81 -40 100 -57 l34 -30 -60 6 c-33 3 -94 14
-135 25 -41 11 -85 20 -98 20 -33 0 -99 -36 -118 -66 -19 -29 -36 -104 -23
-104 5 0 9 5 9 12 0 6 3 8 6 5 8 -7 -14 -37 -26 -37 -4 0 -11 15 -14 34 -4 22
-19 45 -39 62 -28 23 -37 26 -84 21 -29 -3 -53 -2 -53 3 0 21 54 70 112 100
92 48 117 68 115 90 -2 24 -40 21 -112 -10 -117 -50 -185 -114 -185 -173 0
-14 -5 -29 -12 -33 -6 -4 -8 -3 -5 3 4 6 -15 20 -44 31 -38 16 -56 19 -76 11
-14 -5 -28 -8 -30 -5 -2 2 7 23 22 46 28 45 99 95 149 106 38 8 128 52 138 68
27 40 -11 49 -77 19 -27 -13 -58 -23 -68 -23 -39 0 -127 -53 -171 -101 -34
-37 -47 -61 -52 -94 -7 -51 -19 -58 -29 -17 -11 45 -34 63 -74 57 -27 -3 -30
-3 -11 3 l25 8 -25 7 c-13 3 -35 4 -47 1 -24 -6 -28 2 -17 31 13 32 164 90
289 110 91 14 230 69 271 106 25 24 61 27 102 10 18 -8 35 -11 38 -8 10 10
-14 43 -43 57 -15 8 -29 15 -31 16 -2 1 4 18 12 38 16 39 31 44 85 25 18 -6
35 -8 39 -4 9 9 -54 65 -73 65 -19 0 -19 20 -1 45 12 17 18 18 56 6 23 -7 45
-10 48 -7 8 8 -37 54 -60 62 -22 6 -22 14 -4 39 13 19 15 19 55 0 66 -29 71 8
6 46 -57 34 -41 58 25 38 22 -7 43 -9 47 -6 10 10 -35 54 -62 61 -21 5 -22 8
-11 41 15 43 16 44 63 60 55 20 68 18 89 -12z m2988 -321 c102 -167 186 -306
186 -309 0 -3 -38 -3 -86 0 -171 10 -214 56 -298 317 -54 167 -54 168 -40 221
8 29 14 63 14 75 0 29 11 37 25 16 7 -9 96 -153 199 -320z m-413 280 c72 -46
76 -57 32 -78 -39 -20 -63 -64 -27 -49 11 4 35 9 55 12 35 5 36 4 46 -35 l10
-40 -37 -15 c-21 -8 -43 -25 -50 -37 -11 -21 -11 -22 11 -15 13 4 39 9 57 12
29 5 33 2 46 -28 l14 -33 -38 -17 c-31 -14 -58 -45 -48 -55 2 -1 22 3 46 9 32
8 45 8 54 -1 9 -9 3 -19 -28 -46 -21 -19 -37 -36 -34 -39 3 -3 24 0 47 6 38
10 44 9 57 -8 13 -18 12 -21 -7 -28 -32 -12 -67 -48 -67 -68 0 -27 15 -31 43
-9 36 29 81 29 112 0 23 -22 24 -25 9 -41 -15 -17 -13 -18 23 -25 21 -4 48
-14 61 -22 12 -8 31 -12 42 -9 11 3 18 1 14 -4 -5 -9 16 -14 50 -10 11 1 27
-6 37 -15 16 -14 20 -14 48 0 39 21 53 20 49 -1 -2 -12 2 -17 12 -14 52 14 68
12 98 -14 38 -32 40 -45 10 -45 -35 0 -83 -34 -98 -69 -7 -17 -16 -31 -20 -31
-5 0 -29 29 -54 64 -57 81 -85 101 -161 116 -33 6 -86 18 -117 27 -54 15 -58
14 -82 -5 -31 -24 -25 -32 18 -25 27 4 34 2 38 -15 4 -15 11 -19 26 -15 14 3
24 -2 32 -16 9 -18 14 -19 31 -10 28 15 52 4 44 -20 -5 -18 -1 -20 37 -19 35
0 46 -5 65 -28 31 -39 29 -44 -16 -44 -28 0 -45 -7 -65 -26 -14 -15 -26 -31
-26 -35 0 -10 -29 -7 -47 4 -7 4 -9 15 -6 24 4 11 3 14 -5 9 -8 -5 -10 -2 -6
8 3 9 1 16 -5 16 -6 0 -8 6 -5 13 9 24 -52 93 -107 121 -52 26 -129 35 -129
16 0 -5 7 -10 15 -10 11 0 12 -5 5 -26 -14 -35 -13 -35 15 -28 21 5 24 3 19
-11 -6 -15 -4 -16 16 -5 21 11 22 11 16 -14 -7 -29 -4 -31 27 -14 20 10 21 10
8 -5 -8 -10 -9 -17 -3 -17 6 0 14 5 17 10 10 17 44 11 55 -9 15 -29 13 -31
-29 -31 -46 0 -86 -28 -105 -74 l-13 -31 -16 32 c-10 18 -17 44 -17 58 0 35
-46 80 -96 94 -56 16 -106 13 -214 -9 -52 -11 -104 -20 -115 -20 -20 1 -20 1
0 16 11 8 55 26 98 39 93 30 136 51 144 71 3 8 22 24 42 37 38 23 51 47 26 47
-25 0 -28 28 -6 56 21 27 20 44 -4 44 -22 0 -29 39 -11 59 17 18 22 61 8 61
-4 0 -14 -6 -20 -12 -15 -15 -31 4 -32 37 -1 11 -3 39 -6 63 -3 37 -2 42 16
42 28 0 25 14 -10 43 -38 32 -39 57 -4 57 33 0 27 20 -12 40 -16 8 -31 16 -33
18 -11 6 54 122 69 122 9 0 36 -13 61 -28z m-5571 -551 c0 -5 10 -11 23 -14
12 -4 65 -36 117 -73 741 -523 1712 -906 2750 -1083 971 -166 1926 -158 2880
25 466 89 978 238 1317 383 291 124 805 394 1218 639 88 52 170 103 181 114
21 19 22 19 43 -8 26 -33 26 -48 0 -91 -51 -81 -556 -381 -954 -566 -798 -370
-1708 -609 -2665 -702 -525 -50 -856 -49 -1397 6 -1231 124 -2397 506 -3323
1087 -172 108 -252 165 -268 191 -16 27 -6 67 21 86 24 17 57 20 57 6z"/>
<path d="M9734 13575 l-66 -205 -184 0 c-141 0 -184 -3 -184 -12 0 -7 70 -57
155 -112 85 -54 155 -102 155 -106 0 -5 -27 -79 -60 -166 -55 -144 -69 -194
-54 -194 3 0 75 54 161 119 l156 119 150 -114 c82 -63 153 -114 158 -114 17 0
9 27 -52 189 -34 89 -59 164 -58 166 18 16 281 184 297 190 12 3 22 13 22 20
0 12 -34 15 -187 17 l-187 3 -65 203 c-40 125 -69 202 -77 202 -8 0 -39 -79
-80 -205z m66 -104 l0 -220 -54 58 -55 57 52 162 c29 89 53 162 55 162 1 0 2
-99 2 -219z m435 -126 c-8 -4 -316 -94 -380 -112 -12 -3 3 18 40 56 l59 61
146 -1 c80 0 141 -2 135 -4z m-505 -60 c30 -30 50 -55 44 -55 -5 0 -93 24
-194 54 l-185 55 140 0 141 1 54 -55z m24 -127 c-13 -21 -206 -278 -209 -278
-4 0 92 250 98 257 3 2 29 11 59 18 29 7 54 13 56 14 2 1 0 -5 -4 -11z m191
-143 c54 -71 103 -137 109 -145 14 -18 2 -10 -132 94 l-102 78 0 66 c0 78 -10
86 125 -93z"/>
<path d="M8425 12995 l-66 -205 -184 0 c-158 0 -185 -2 -185 -15 0 -8 3 -15 8
-15 4 0 75 -43 157 -96 102 -64 149 -100 147 -110 -2 -9 -30 -86 -63 -171 -57
-149 -67 -183 -52 -183 3 0 75 52 159 115 85 63 156 115 159 115 3 0 69 -48
147 -106 137 -104 176 -125 170 -94 -2 8 -28 83 -59 165 -31 83 -58 155 -60
160 -2 6 66 56 152 110 85 55 155 106 155 113 0 9 -42 12 -180 12 l-179 0 -66
205 c-44 136 -71 205 -80 205 -9 0 -36 -69 -80 -205z m73 -216 l-3 -110 -57
58 -56 58 56 170 57 170 3 -118 c1 -65 1 -168 0 -228z m427 -14 c-8 -4 -316
-94 -380 -112 -12 -3 3 18 40 56 l59 61 146 -1 c80 0 141 -2 135 -4z m-502
-60 c27 -30 45 -55 42 -55 -7 0 -343 98 -360 104 -5 3 53 5 130 5 l140 1 48
-55z m321 -414 c5 -8 -46 27 -113 78 l-121 92 0 70 0 71 113 -148 c62 -82 117
-155 121 -163z m-301 285 c-18 -30 -197 -265 -200 -262 -3 3 73 211 87 236 5
8 28 20 52 26 60 17 71 17 61 0z"/>
<path d="M11080 13028 c-28 -90 -58 -184 -66 -210 l-16 -48 -184 0 c-179 0
-219 -7 -161 -29 24 -9 297 -180 297 -186 0 -1 -29 -80 -65 -175 -36 -95 -65
-174 -65 -176 0 -16 44 11 175 110 l152 114 151 -114 c83 -63 156 -114 162
-114 16 0 13 13 -50 179 -33 87 -60 163 -60 167 0 11 282 194 298 194 7 0 12
7 12 15 0 13 -27 15 -185 15 l-184 0 -68 210 c-40 125 -72 210 -79 210 -8 0
-34 -67 -64 -162z m55 -367 c-3 -3 -30 21 -59 54 l-53 59 56 169 56 168 3
-222 c1 -122 0 -224 -3 -228z m-75 44 c29 -30 52 -57 49 -59 -5 -5 -380 101
-388 110 -2 2 61 4 140 4 l145 0 54 -55z m509 51 c-3 -3 -287 -86 -384 -113
-12 -3 3 18 40 56 l59 61 145 0 c79 0 142 -2 140 -4z m-273 -346 c59 -80 101
-140 93 -134 -8 6 -62 48 -121 93 l-108 83 0 66 c0 79 -11 88 136 -108z"/>
<path d="M9747 12408 c-25 -79 -75 -236 -112 -350 l-66 -208 -304 0 c-276 0
-347 -6 -298 -24 9 -4 130 -79 268 -167 l252 -161 -110 -294 c-61 -162 -108
-296 -105 -300 3 -3 34 17 69 45 35 28 155 118 266 201 l202 149 198 -146
c109 -80 226 -167 260 -194 62 -48 87 -51 64 -6 -13 26 -201 527 -201 536 0 4
119 83 265 176 146 93 265 175 265 182 0 10 -61 13 -310 13 l-309 0 -91 283
c-50 155 -100 310 -111 345 -12 34 -26 62 -33 62 -7 0 -32 -59 -59 -142z m53
-345 l0 -418 -100 105 c-54 58 -99 112 -99 121 -1 8 42 147 94 308 52 161 95
294 95 297 0 2 2 4 5 4 3 0 5 -188 5 -417z m-111 -334 c58 -62 96 -109 85
-105 -10 3 -174 51 -364 106 -190 55 -349 102 -355 104 -5 3 112 5 260 5 l270
1 104 -111z m876 106 c-26 -11 -710 -205 -719 -205 -6 0 36 47 94 105 l105
105 265 -1 c146 0 261 -2 255 -4z m-518 -553 c113 -153 211 -284 217 -291 6
-8 -90 62 -214 156 l-225 170 -3 127 c-2 89 1 126 8 121 6 -4 104 -131 217
-283z m-307 263 c0 -8 -412 -556 -416 -552 -2 1 40 116 93 254 l96 252 101 24
c110 27 126 30 126 22z"/>
<path d="M11360 11595 l-64 -205 -183 0 c-140 0 -183 -3 -183 -12 0 -7 72 -58
159 -112 l159 -100 -24 -65 c-14 -37 -43 -115 -66 -174 -31 -82 -39 -110 -30
-119 9 -9 15 -8 24 4 15 19 282 218 292 218 4 0 70 -47 146 -105 146 -110 165
-122 173 -108 3 4 -24 84 -59 178 -35 93 -60 172 -56 176 4 3 73 47 155 98 81
51 147 99 147 107 0 11 -35 14 -182 16 l-181 3 -67 200 c-42 126 -72 201 -81
203 -11 2 -32 -52 -79 -203z m70 -107 l0 -223 -56 58 c-37 38 -54 63 -50 73 3
9 27 83 53 165 26 82 48 149 50 149 2 0 3 -100 3 -222z m-66 -184 c40 -46 44
-54 25 -49 -13 3 -98 28 -189 55 l-165 49 140 0 140 1 49 -56z m471 51 c-44
-17 -351 -103 -354 -99 -3 2 17 27 44 54 l49 50 136 -1 c74 0 131 -2 125 -4z
m-263 -310 c57 -77 108 -146 113 -154 4 -8 -47 27 -114 78 l-121 92 0 71 c0
41 4 68 9 63 4 -6 55 -73 113 -150z m-188 133 c-14 -23 -206 -278 -210 -278
-2 0 8 30 22 68 14 37 35 92 46 122 11 30 24 59 28 63 4 5 32 15 61 22 30 7
55 13 57 14 2 1 0 -5 -4 -11z"/>
<path d="M8175 11778 c-3 -11 -50 -157 -112 -350 l-15 -48 -184 0 c-116 0
-184 -4 -184 -10 0 -5 4 -10 8 -10 7 0 292 -180 310 -195 1 -1 -24 -71 -57
-156 -75 -199 -75 -199 -59 -199 8 0 77 46 153 103 77 57 145 106 152 110 7 5
72 -37 163 -104 96 -71 155 -108 161 -102 6 6 -14 71 -55 179 -56 148 -61 170
-47 178 83 45 301 191 301 202 0 11 -36 14 -187 16 l-187 3 -64 198 c-44 139
-67 197 -78 197 -8 0 -17 -6 -19 -12z m13 -404 l-3 -116 -54 62 -54 62 54 171
54 172 3 -117 c1 -65 1 -170 0 -234z m-73 -64 c27 -27 46 -52 43 -55 -4 -5
-319 82 -363 99 -5 3 53 5 130 5 l141 1 49 -50z m327 0 c-240 -71 -226 -71
-162 -6 l54 56 136 -1 135 0 -163 -49z m-383 -242 c-49 -68 -99 -134 -110
-148 -13 -18 -7 8 22 90 23 63 43 123 46 132 3 11 26 22 67 32 33 8 62 15 64
15 1 1 -39 -54 -89 -121z m381 -183 c0 -3 -52 34 -115 81 l-115 86 0 70 0 70
115 -150 c63 -83 115 -153 115 -157z"/>
<path d="M9030 10445 l-64 -205 -183 0 c-140 0 -183 -3 -183 -12 0 -7 72 -57
159 -111 l159 -97 -64 -167 c-67 -175 -74 -203 -49 -203 8 0 15 4 15 10 0 5
66 59 146 119 l146 110 150 -114 c83 -63 154 -115 159 -115 21 0 14 30 -47
190 -36 95 -64 173 -62 175 22 16 288 183 301 188 9 3 17 11 17 17 0 6 -66 10
-188 10 l-188 0 -65 202 c-43 134 -70 204 -79 206 -12 2 -31 -48 -80 -203z
m70 -107 l0 -213 -55 55 -55 55 52 158 c29 86 54 157 55 157 2 0 3 -96 3 -212z
m-72 -178 c29 -33 47 -58 40 -55 -7 2 -94 27 -193 55 -99 29 -182 54 -184 56
-2 2 61 4 140 4 l145 0 52 -60z m497 55 c-5 -3 -89 -27 -185 -55 -96 -28 -182
-53 -190 -56 -8 -3 12 22 45 55 l59 61 141 -1 c77 0 136 -2 130 -4z m-274
-327 c68 -89 114 -155 103 -147 -11 8 -68 49 -127 93 l-107 79 0 68 c0 38 2
69 4 69 3 0 60 -73 127 -162z m-198 138 c-17 -28 -197 -265 -200 -263 -1 2 19
59 45 128 l47 124 45 12 c62 16 73 16 63 -1z"/>
<path d="M10515 10638 c-2 -7 -31 -100 -65 -205 l-61 -193 -185 0 c-141 0
-184 -3 -184 -12 1 -7 71 -56 157 -108 85 -52 157 -99 159 -105 2 -5 -25 -86
-61 -180 -69 -181 -72 -215 -13 -158 18 18 87 72 152 121 l120 90 149 -114
c143 -109 177 -129 177 -101 -1 6 -29 86 -64 177 -48 124 -61 168 -52 176 18
19 285 184 296 184 5 0 10 7 10 15 0 13 -27 15 -184 15 l-185 0 -51 163 c-28
89 -57 180 -64 202 -13 40 -42 59 -51 33z m15 -295 l0 -227 -44 43 c-76 74
-75 67 -15 250 30 88 55 161 56 161 2 0 3 -102 3 -227z m-75 -183 c33 -33 56
-60 52 -60 -11 0 -381 111 -386 116 -2 2 58 4 135 4 l140 0 59 -60z m494 56
c-2 -2 -44 -15 -94 -29 -49 -15 -134 -39 -187 -56 -54 -16 -98 -27 -98 -24 0
2 23 29 51 59 l52 54 140 0 c77 0 138 -2 136 -4z m-281 -317 c63 -83 112 -152
110 -154 -2 -2 -56 36 -120 83 l-117 87 -1 68 c0 37 3 67 8 66 4 0 58 -68 120
-150z m-188 134 c0 -7 -198 -273 -204 -273 -2 0 18 57 44 127 l48 128 43 11
c53 14 69 16 69 7z"/>
<path d="M9380 7966 c-10 -49 -9 -60 11 -105 12 -28 25 -51 29 -51 15 0 90
115 90 137 0 27 -12 29 -45 7 -23 -15 -24 -15 -45 25 -11 23 -22 41 -24 41 -3
0 -10 -24 -16 -54z"/>
<path d="M9516 7518 c-11 -42 -6 -58 31 -114 l37 -56 27 31 c25 31 46 112 33
132 -3 5 -14 -1 -24 -13 l-19 -23 -33 33 c-40 38 -44 39 -52 10z"/>
<path d="M10157 7465 c-15 -30 -32 -55 -37 -55 -6 0 -28 9 -50 20 -22 11 -44
20 -49 20 -6 0 -1 -27 11 -59 21 -58 23 -60 100 -101 44 -23 83 -38 87 -34 4
5 15 44 25 86 l18 78 -37 50 c-20 27 -38 50 -39 50 -1 0 -14 -25 -29 -55z"/>
<path d="M9768 7416 c-27 -42 -29 -42 -53 -16 -10 11 -22 20 -27 20 -4 0 -8
-33 -8 -72 1 -67 3 -75 27 -92 l26 -20 27 33 c22 26 29 47 34 103 4 38 5 72 2
75 -2 3 -15 -11 -28 -31z"/>
<path d="M9439 7367 l-26 -43 25 -85 c14 -46 27 -86 29 -89 2 -2 24 17 49 42
41 40 45 49 39 77 -4 20 -13 31 -24 31 -13 0 -23 16 -36 55 -11 30 -22 55 -25
55 -3 0 -17 -19 -31 -43z"/>
<path d="M9156 7288 c-27 -36 -28 -41 -21 -105 10 -93 12 -97 44 -74 74 54 90
75 97 126 l7 50 -25 -22 c-37 -35 -54 -29 -64 20 l-9 42 -29 -37z"/>
<path d="M10330 7315 c0 -2 16 -47 35 -100 19 -52 31 -95 27 -95 -4 0 21 -18
56 -40 56 -36 82 -47 82 -36 0 2 15 37 34 78 l34 75 -23 29 -23 29 -24 -22
-24 -23 -82 55 c-78 53 -92 60 -92 50z"/>
<path d="M9650 7167 c0 -37 5 -48 38 -78 68 -64 66 -64 96 -19 18 28 26 53 26
84 0 58 -12 64 -44 24 l-25 -32 -40 32 c-22 18 -42 32 -45 32 -3 0 -6 -19 -6
-43z"/>
<path d="M10083 7108 c3 -13 11 -48 17 -78 12 -54 14 -56 102 -118 49 -35 91
-62 93 -60 1 1 16 30 33 64 20 40 29 70 25 85 -3 13 -9 41 -15 63 l-10 39 -46
-46 -47 -46 -70 59 c-38 33 -74 59 -79 60 -4 0 -6 -10 -3 -22z"/>
<path d="M8968 6653 c-8 -10 -94 -135 -190 -278 l-174 -260 33 -54 c51 -85
119 -256 158 -396 87 -317 105 -691 49 -1010 -8 -44 -14 -94 -14 -111 0 -76
170 -267 336 -377 91 -60 244 -137 273 -137 8 0 11 292 11 1046 l0 1046 835
-3 c647 -3 835 -7 835 -16 0 -7 -16 -41 -35 -76 -19 -35 -35 -68 -35 -73 0 -5
19 24 41 65 22 41 38 82 36 90 -4 14 -295 450 -354 529 l-24 32 -883 0 c-828
0 -884 -1 -898 -17z"/>
<path d="M8758 4083 l-26 -40 20 -72 c12 -39 25 -71 29 -71 5 0 32 11 62 24
51 22 53 25 65 76 7 29 10 55 8 57 -2 3 -26 -5 -52 -16 -26 -12 -48 -20 -49
-19 -2 2 -9 25 -16 52 l-14 49 -27 -40z"/>
<path d="M8852 3755 c-20 -56 -22 -69 -12 -107 22 -79 20 -79 98 -51 66 24 68
25 86 74 9 28 15 53 12 56 -3 3 -32 -4 -65 -15 l-60 -20 -12 59 c-6 33 -15 61
-18 64 -4 2 -17 -25 -29 -60z"/>
<path d="M8529 3769 c-11 -34 -10 -52 6 -115 10 -41 24 -74 31 -74 38 0 78 30
105 80 l29 53 -41 -6 c-40 -5 -41 -5 -75 49 -19 30 -37 54 -39 54 -2 0 -10
-18 -16 -41z"/>
<path d="M9326 3608 c-7 -34 19 -128 35 -128 16 0 94 60 101 78 11 27 9 72 -2
72 -6 0 -25 -7 -42 -16 -28 -15 -31 -14 -52 5 -29 28 -32 27 -40 -11z"/>
<path d="M9064 3564 c-14 -33 -13 -38 7 -70 l21 -35 57 31 c60 34 91 63 91 87
0 12 -11 13 -64 8 -42 -5 -66 -3 -70 4 -13 20 -27 12 -42 -25z"/>
<path d="M8728 3535 c-16 -43 -16 -46 9 -107 14 -35 27 -65 29 -67 2 -2 22 8
44 23 38 25 40 29 40 76 0 28 -2 50 -4 50 -3 0 -16 -4 -29 -9 -23 -9 -26 -6
-42 35 -9 24 -20 44 -24 44 -4 0 -14 -20 -23 -45z"/>
<path d="M9012 3388 c-11 -20 -10 -32 8 -82 21 -54 24 -58 49 -53 61 13 79 25
96 72 10 25 16 47 14 49 -2 2 -28 -1 -57 -6 -52 -11 -54 -10 -76 16 l-22 28
-12 -24z"/>
<path d="M8520 3320 c-31 -39 -32 -41 -25 -116 7 -71 9 -75 29 -70 11 3 35 6
52 6 28 0 33 5 50 47 11 27 20 51 22 55 2 4 -14 8 -35 10 -37 3 -38 4 -45 51
-4 27 -9 51 -11 53 -3 3 -19 -13 -37 -36z"/>
<path d="M8491 2882 c-11 -32 -10 -44 5 -82 9 -25 18 -47 20 -48 4 -5 98 50
106 63 4 5 8 23 8 39 0 28 -1 28 -39 22 -34 -5 -41 -3 -55 19 -22 34 -31 32
-45 -13z"/>
<path d="M8855 2886 c-16 -37 -10 -105 10 -112 6 -3 42 8 80 25 60 25 71 34
82 65 16 46 4 53 -56 31 -57 -20 -68 -19 -76 5 -9 29 -24 24 -40 -14z"/>
<path d="M10909 4080 c-27 -36 -41 -37 -98 -5 -23 14 -46 25 -50 25 -4 0 -12
-25 -18 -55 l-10 -55 90 -61 c49 -33 90 -59 92 -57 1 2 13 38 25 80 33 114 15
191 -31 128z"/>
<path d="M11102 3790 c-17 -42 -24 -44 -77 -24 -14 6 -15 0 -9 -47 6 -46 13
-59 48 -90 23 -21 44 -35 48 -33 4 3 20 29 37 60 l30 55 -22 60 c-11 32 -25
59 -30 59 -5 0 -16 -18 -25 -40z"/>
<path d="M10820 3731 l-32 -90 -43 29 c-50 34 -69 38 -62 13 3 -10 8 -35 11
-55 5 -27 15 -42 39 -57 18 -11 45 -33 61 -50 17 -17 33 -31 36 -31 4 0 22 38
40 84 l32 85 -17 73 c-10 40 -21 77 -25 81 -4 5 -22 -32 -40 -82z"/>
<path d="M10413 3701 c3 -15 9 -51 13 -78 6 -46 9 -51 42 -63 19 -7 54 -30 77
-51 23 -22 45 -39 48 -39 3 0 18 21 33 46 26 44 27 48 14 98 -17 70 -19 71
-50 41 -32 -30 -30 -31 -111 32 -30 24 -59 43 -63 43 -5 0 -6 -13 -3 -29z"/>
<path d="M10334 3660 c-15 -25 -30 -47 -31 -49 -2 -3 -18 10 -36 27 -18 18
-36 32 -40 32 -4 0 -7 -28 -7 -63 l0 -63 56 -48 c30 -27 57 -47 58 -45 2 2 16
28 31 58 23 46 26 62 21 103 -4 26 -10 58 -15 70 -7 21 -10 19 -37 -22z"/>
<path d="M10952 3568 c-11 -29 -22 -63 -26 -74 -6 -19 -12 -21 -51 -16 -25 2
-45 2 -45 0 0 -3 11 -31 26 -61 21 -48 33 -60 80 -86 29 -16 56 -26 57 -23 2
4 14 48 27 97 l23 90 -32 63 c-17 34 -33 62 -35 62 -3 0 -13 -24 -24 -52z"/>
<path d="M10458 3389 c15 -60 15 -60 103 -120 49 -32 90 -59 92 -59 2 0 14 21
26 48 19 40 21 55 14 97 l-9 50 -19 -32 c-11 -18 -23 -33 -28 -33 -4 0 -34 17
-65 39 -53 36 -115 71 -125 71 -3 0 2 -27 11 -61z"/>
<path d="M10743 3385 c4 -22 7 -49 7 -60 0 -12 30 -47 75 -88 l74 -68 14 48
c14 48 12 59 -17 98 -14 19 -15 19 -28 2 -13 -18 -18 -15 -73 44 l-58 64 6
-40z"/>
<path d="M11140 3295 l-22 -66 -34 22 -34 21 0 -49 0 -48 65 -42 c36 -24 68
-43 73 -43 4 0 17 29 29 65 l21 65 -31 70 c-17 39 -34 70 -38 70 -4 0 -17 -29
-29 -65z"/>
<path d="M10437 3279 c-17 -23 -18 -23 -46 -6 -44 26 -51 22 -51 -33 0 -50 0
-50 50 -75 27 -14 54 -25 59 -25 6 0 18 14 27 31 17 34 13 83 -10 114 -12 17
-14 17 -29 -6z"/>
<path d="M10530 3198 c0 -7 8 -39 18 -70 15 -50 25 -63 76 -103 32 -25 62 -45
67 -45 4 0 17 21 29 47 15 35 19 58 15 85 -9 49 -19 54 -43 23 l-20 -25 -58
43 c-79 58 -84 60 -84 45z"/>
<path d="M11160 2951 c0 -5 -7 -25 -15 -45 l-16 -37 -44 26 -45 26 1 -43 c0
-24 3 -50 7 -59 10 -25 121 -112 135 -106 7 2 21 35 31 72 l19 67 -26 54 c-24
48 -47 70 -47 45z"/>
<path d="M10625 2933 c4 -10 13 -36 21 -58 12 -34 26 -47 93 -88 44 -26 82
-47 85 -47 4 0 17 25 31 56 l25 55 -22 30 c-27 36 -36 36 -44 4 -3 -14 -11
-25 -16 -25 -6 0 -46 20 -90 45 -44 25 -82 45 -85 45 -3 0 -2 -8 2 -17z"/>
<path d="M9525 3170 l-28 -44 18 -53 c10 -29 20 -53 23 -53 3 0 24 11 48 25
43 25 47 31 59 94 l7 34 -35 -7 c-32 -6 -38 -4 -50 20 l-14 28 -28 -44z"/>
<path d="M13347 2033 c1 -21 7 -135 14 -253 6 -118 13 -217 15 -219 2 -3 34
11 70 30 l66 34 -6 90 c-12 190 -10 290 9 319 21 32 15 42 -16 26 -21 -12
-105 -9 -139 4 -13 5 -15 -1 -13 -31z"/>
<path d="M13231 2022 c-12 -17 -54 -55 -93 -84 -59 -44 -67 -54 -49 -56 11 -2
19 -8 15 -13 -3 -6 3 -13 14 -15 16 -5 20 -18 26 -81 11 -138 12 -136 -40
-161 -26 -13 -48 -21 -50 -19 -2 2 -7 21 -12 43 -5 21 -14 38 -20 36 -7 -1
-12 8 -12 20 0 20 -3 19 -37 -14 -21 -20 -63 -51 -93 -69 -30 -18 -56 -34 -58
-35 -9 -6 44 -54 55 -50 28 11 -1 -22 -33 -37 -50 -24 -54 -22 -54 29 0 42
-20 81 -34 67 -3 -4 -6 2 -6 11 0 15 -8 11 -40 -18 -22 -19 -65 -52 -95 -72
-49 -33 -54 -39 -38 -47 49 -27 45 -69 -7 -90 l-40 -15 0 44 c0 24 -4 44 -10
44 -5 0 -10 5 -10 10 0 6 -6 17 -12 24 -11 11 -21 6 -58 -26 -25 -22 -68 -52
-97 -66 l-51 -25 24 -19 c13 -11 28 -17 32 -14 5 3 6 -8 4 -25 -2 -16 -5 -29
-7 -29 -1 0 -90 -27 -196 -61 -521 -163 -1005 -257 -1629 -315 -327 -30 -987
-29 -1307 3 l-63 6 0 64 c0 40 -4 62 -10 58 -5 -3 -10 4 -10 16 0 24 2 24
-103 -15 -37 -14 -78 -26 -89 -26 -20 0 -19 -3 10 -28 31 -28 32 -32 32 -108
l0 -80 -46 -38 c-41 -34 -44 -40 -30 -55 11 -12 33 -16 97 -16 l82 1 33 38 33
38 233 -12 c333 -18 949 -8 1218 19 448 45 713 87 1100 176 488 111 1043 303
1476 510 l135 64 -5 83 c-3 46 -8 157 -11 248 -4 117 -10 168 -19 175 -7 6
-15 16 -17 24 -4 10 -12 5 -28 -17z"/>
<path d="M6190 1922 c-46 -23 -77 -71 -92 -143 -7 -34 -17 -59 -24 -59 -59 0
29 -56 301 -192 612 -306 1246 -523 1904 -652 233 -46 511 -87 539 -79 31 8
33 25 30 208 l-3 160 -40 3 c-22 1 -78 7 -125 13 -188 23 -220 39 -220 108 0
22 -4 42 -9 45 -5 3 -28 -1 -52 -8 -24 -8 -65 -17 -91 -21 -52 -7 -66 -25 -37
-51 16 -14 19 -31 19 -105 0 -85 -1 -89 -23 -94 -47 -12 -568 124 -851 222
-354 123 -947 379 -961 416 -3 7 6 58 20 111 14 54 25 100 25 103 0 2 -10 1
-22 -3 -37 -12 -101 -5 -163 16 -71 24 -81 25 -125 2z m2410 -880 l85 -18 3
-37 c4 -43 8 -42 -112 -21 -112 19 -126 27 -126 64 0 27 3 30 33 30 17 -1 70
-9 117 -18z"/>
</g>
</svg>
