<?xml version="1.0" standalone="no"?>
<!DOCTYPE svg PUBLIC "-//W3C//DTD SVG 20010904//EN"
 "http://www.w3.org/TR/2001/REC-SVG-20010904/DTD/svg10.dtd">
<svg version="1.0" xmlns="http://www.w3.org/2000/svg"
 width="2169.000000pt" height="2190.000000pt" viewBox="0 0 2169.000000 2190.000000"
 preserveAspectRatio="xMidYMid meet">
<metadata>
Created by potrace 1.16, written by Peter Selinger 2001-2019
</metadata>
<g transform="translate(0.000000,2190.000000) scale(0.100000,-0.100000)"
fill="#000000" stroke="none">
<path d="M10712 21882 c-72 -26 -139 -86 -181 -163 l-36 -64 0 -9325 0 -9325
28 -56 c34 -69 100 -132 175 -167 81 -37 193 -37 274 0 75 35 138 94 174 165
l29 58 0 9320 0 9320 -33 67 c-36 73 -87 124 -161 160 -64 31 -196 36 -269 10z"/>
<path d="M9053 19655 c-97 -27 -184 -101 -227 -194 l-21 -46 0 -8205 0 -8205
22 -47 c33 -71 103 -141 176 -174 86 -39 196 -40 277 -2 102 46 165 117 194
219 15 49 16 836 14 8234 l-3 8180 -22 48 c-71 151 -253 237 -410 192z"/>
<path d="M12397 19660 c-101 -26 -190 -99 -233 -193 l-29 -62 0 -8195 0 -8195
26 -56 c128 -272 507 -272 632 -1 l22 47 0 8205 0 8205 -24 53 c-30 67 -122
154 -188 176 -60 21 -156 28 -206 16z"/>
<path d="M1833 16566 c-88 -28 -176 -107 -216 -194 -30 -67 -30 -207 0 -274
30 -66 105 -143 172 -175 l56 -28 2450 0 2450 0 47 22 c225 104 275 402 96
569 -27 25 -70 55 -96 67 l-47 22 -2435 2 c-1983 1 -2443 -1 -2477 -11z"/>
<path d="M14863 16566 c-193 -61 -293 -287 -209 -473 33 -73 103 -143 174
-176 l47 -22 2450 0 2450 0 55 26 c70 33 136 99 169 169 22 46 26 69 26 145 0
76 -4 99 -26 145 -33 70 -99 136 -169 169 l-55 26 -2435 2 c-1983 1 -2443 -1
-2477 -11z"/>
<path d="M4111 15139 c-95 -19 -189 -87 -231 -169 -11 -22 -420 -1223 -907
-2668 l-887 -2627 0 -85 c-1 -77 2 -92 32 -152 36 -73 87 -124 161 -160 67
-33 196 -37 272 -9 67 25 140 86 173 144 13 23 360 1042 772 2265 411 1222
751 2219 755 2215 4 -5 552 -1506 1217 -3338 666 -1831 1214 -3338 1217 -3347
7 -17 -128 -18 -2754 -18 l-2761 0 0 -43 c0 -118 77 -302 181 -432 354 -444
1196 -782 2219 -889 461 -49 989 -49 1450 0 1194 125 2129 566 2347 1105 42
104 58 202 44 276 -10 54 -2724 7544 -2797 7720 -35 85 -91 145 -169 184 -58
28 -73 31 -177 34 -62 1 -133 -1 -157 -6z"/>
<path d="M17245 15136 c-92 -23 -166 -76 -210 -150 -31 -53 -2809 -7696 -2825
-7771 -39 -188 95 -457 330 -663 540 -473 1598 -762 2785 -762 750 0 1434 110
2003 321 534 199 934 498 1062 795 30 69 60 189 60 241 l0 43 -2759 2 -2759 3
1221 3359 c671 1848 1223 3353 1225 3345 66 -210 1500 -4447 1515 -4477 29
-60 106 -126 173 -151 74 -28 184 -28 258 -1 73 28 147 99 183 175 24 51 28
72 27 145 l0 85 -793 2350 c-436 1293 -838 2482 -892 2643 -107 317 -130 363
-210 416 -22 15 -60 34 -82 43 -55 19 -246 25 -312 9z"/>
<path d="M8360 2024 c-95 -26 -169 -86 -218 -179 -38 -73 -43 -197 -11 -280
30 -81 112 -164 192 -193 l58 -22 2429 0 2429 0 58 22 c80 29 162 112 192 193
19 50 22 74 19 145 -6 121 -49 201 -142 265 -103 70 87 65 -2561 64 -2072 0
-2397 -2 -2445 -15z"/>
</g>
</svg>
