<?xml version="1.0" standalone="no"?>
<!DOCTYPE svg PUBLIC "-//W3C//DTD SVG 20010904//EN"
 "http://www.w3.org/TR/2001/REC-SVG-20010904/DTD/svg10.dtd">
<svg version="1.0" xmlns="http://www.w3.org/2000/svg"
 width="666.000000pt" height="667.000000pt" viewBox="0 0 666.000000 667.000000"
 preserveAspectRatio="xMidYMid meet">
<metadata>
Created by potrace 1.16, written by Peter Selinger 2001-2019
</metadata>
<g transform="translate(0.000000,667.000000) scale(0.100000,-0.100000)"
fill="#000000" stroke="none">
<path d="M3055 6390 c-437 -39 -850 -170 -1201 -381 -112 -68 -134 -94 -134
-162 0 -82 41 -146 107 -168 44 -14 103 5 258 87 277 145 531 231 851 286 169
29 556 32 727 5 273 -42 592 -137 827 -247 272 -126 282 -130 337 -130 44 0
56 4 81 30 41 40 66 109 59 157 -10 61 -82 119 -244 198 -337 164 -663 263
-1023 310 -149 19 -505 27 -645 15z"/>
<path d="M3167 5685 c-22 -7 -50 -23 -63 -36 -67 -63 -49 -202 33 -256 24 -16
53 -18 223 -19 124 -1 235 -8 305 -18 633 -96 1168 -403 1568 -902 109 -137
142 -159 215 -151 110 12 171 124 124 228 -50 111 -342 428 -542 589 -288 231
-625 398 -990 490 -289 73 -764 114 -873 75z"/>
<path d="M2450 5560 c-348 -137 -675 -333 -922 -554 -176 -157 -516 -565 -538
-646 -20 -73 19 -154 90 -190 53 -27 99 -25 145 5 45 31 62 51 165 195 110
154 195 253 337 390 251 246 494 393 820 499 83 27 163 57 177 66 81 53 78
196 -6 258 -19 14 -46 22 -85 24 -50 2 -76 -5 -183 -47z"/>
<path d="M1334 5590 c-59 -24 -103 -121 -84 -189 21 -79 76 -121 158 -121 161
0 214 235 69 304 -37 17 -108 20 -143 6z"/>
<path d="M3190 5040 c-403 -39 -800 -195 -1140 -449 -93 -69 -273 -242 -351
-337 -228 -278 -383 -643 -444 -1044 -23 -147 -30 -465 -16 -630 21 -237 93
-597 136 -679 49 -95 221 -95 270 -1 23 44 18 127 -15 255 -159 615 -103 1182
162 1650 419 741 1220 1057 2103 830 311 -80 542 -212 770 -440 265 -264 417
-593 466 -1009 17 -149 7 -411 -21 -506 -56 -195 -173 -309 -335 -325 -126
-13 -162 -24 -194 -60 -58 -66 -48 -182 20 -239 75 -63 306 -38 456 50 27 15
81 60 121 100 163 162 242 438 242 843 0 263 -39 485 -125 717 -249 664 -868
1150 -1606 1258 -135 20 -375 27 -499 16z"/>
<path d="M3442 4330 c-48 -30 -72 -75 -72 -140 0 -98 60 -160 154 -160 121 0
195 127 138 240 -38 76 -146 105 -220 60z"/>
<path d="M2915 4296 c-423 -111 -810 -490 -960 -939 -67 -201 -79 -285 -80
-542 0 -251 10 -339 66 -567 58 -237 197 -621 265 -729 27 -44 77 -87 110 -95
69 -17 149 19 178 80 31 66 22 106 -62 275 -115 230 -188 461 -228 721 -25
160 -25 461 -1 583 83 413 384 758 787 902 41 14 83 34 94 43 45 41 60 135 30
198 -33 69 -106 94 -199 70z"/>
<path d="M4055 4141 c-49 -12 -83 -40 -105 -85 -42 -89 -23 -144 90 -252 170
-163 318 -400 390 -624 31 -96 70 -293 70 -356 0 -45 46 -97 101 -113 79 -24
157 8 185 75 19 45 18 208 -1 320 -61 354 -216 646 -477 900 -131 128 -178
153 -253 135z"/>
<path d="M5675 4080 c-102 -65 -97 -232 8 -287 83 -42 198 5 228 94 24 73 -13
163 -82 198 -40 21 -118 19 -154 -5z"/>
<path d="M795 3920 c-63 -19 -96 -70 -139 -211 -55 -181 -96 -430 -99 -601 -2
-73 1 -91 19 -114 32 -44 68 -66 118 -71 57 -7 97 9 135 53 31 35 31 34 50
222 14 133 45 280 87 415 19 60 34 130 34 156 0 106 -104 182 -205 151z"/>
<path d="M3140 3660 c-99 -26 -240 -97 -317 -160 -127 -103 -232 -270 -273
-435 -56 -222 -29 -573 66 -860 229 -692 797 -1256 1389 -1379 147 -31 225 23
225 155 0 47 -3 55 -42 94 -34 33 -61 48 -128 70 -114 37 -326 140 -429 210
-430 289 -679 681 -767 1210 -24 146 -24 364 0 435 47 140 134 250 237 303 30
15 99 36 154 48 120 25 149 41 175 94 26 54 25 102 -3 155 -43 81 -132 100
-287 60z"/>
<path d="M5903 3574 c-105 -52 -104 -238 1 -288 109 -52 236 26 236 144 0 118
-130 197 -237 144z"/>
<path d="M3763 3451 c-24 -11 -51 -34 -63 -53 -40 -65 -38 -86 31 -291 35
-105 73 -205 84 -222 60 -90 207 -81 273 16 21 30 23 42 19 100 -7 80 -65 261
-111 344 -58 106 -147 146 -233 106z"/>
<path d="M3259 2977 c-56 -37 -72 -84 -71 -206 3 -358 154 -720 408 -976 233
-235 527 -377 855 -416 108 -12 276 -7 340 11 87 24 133 133 95 223 -31 73
-98 100 -226 90 -97 -7 -259 12 -367 43 -240 69 -459 229 -596 436 -122 183
-173 342 -207 642 -7 55 -19 110 -27 123 -37 56 -142 72 -204 30z"/>
<path d="M4080 2551 c-105 -56 -103 -232 3 -288 69 -36 163 -13 210 49 31 42
35 126 8 175 -45 79 -141 107 -221 64z"/>
<path d="M5221 1918 c-59 -40 -76 -72 -76 -143 0 -49 5 -70 21 -92 68 -90 208
-89 265 3 67 110 2 241 -124 252 -42 3 -58 -1 -86 -20z"/>
<path d="M1620 1558 c-94 -64 -92 -218 3 -277 48 -29 123 -28 167 2 57 38 75
71 75 137 0 66 -18 99 -75 138 -24 16 -47 22 -85 22 -38 0 -61 -6 -85 -22z"/>
<path d="M2625 1265 c-94 -33 -128 -140 -78 -240 27 -52 204 -220 294 -279
168 -108 252 -135 319 -101 35 18 66 68 74 120 10 67 -15 103 -141 200 -61 47
-160 133 -220 190 -79 75 -120 106 -148 114 -49 13 -51 13 -100 -4z"/>
</g>
</svg>
